<svg width="162" height="53" viewBox="0 0 162 53" fill="none" xmlns="http://www.w3.org/2000/svg">
<path fill-rule="evenodd" clip-rule="evenodd" d="M161.346 29.9062V41.9062H155.658V52.125H142.127V41.9062H122.694L122.234 33.5755L142.127 2.4065V0.625H156.164L155.658 1.49252V29.9062H161.346ZM152.658 32.9062H158.346V38.9062H152.658V49.125H145.127V38.9062H125.533L125.283 34.375L144.908 3.625H152.658V32.9062ZM145.127 32.9062H133.127L144.408 14.8125L145.127 13.5813V32.9062ZM142.127 29.9062V24.1416L138.533 29.9062H142.127Z" fill="#B3DB11"/>
<path fill-rule="evenodd" clip-rule="evenodd" d="M119.648 40.125V52.125H83.1484V42.8016L98.7326 25.8037C100.308 24.0256 101.504 22.5407 102.351 21.337C103.194 20.1372 103.691 19.1876 103.944 18.4703L103.95 18.4547L103.956 18.4392C104.246 17.6433 104.367 16.9396 104.367 16.3125C104.367 15.2543 104.169 14.4687 103.871 13.8729L103.856 13.8422L103.841 13.8111C103.565 13.2246 103.187 12.8093 102.676 12.4961L102.657 12.4845L102.638 12.4727C102.189 12.1882 101.533 11.9688 100.523 11.9688C99.2683 11.9688 98.4439 12.2372 97.8841 12.5935C97.253 12.995 96.7678 13.5446 96.4138 14.3285L96.41 14.3369L96.4062 14.3453C96.0322 15.1601 95.8047 16.1792 95.8047 17.4688V20.4688H82.2734V17.4688C82.2734 14.3491 82.9905 11.4312 84.4561 8.77521C85.9442 6.05712 88.1024 3.91325 90.8538 2.36044C93.6883 0.739395 96.9846 0 100.617 0C103.983 0 107.036 0.563526 109.666 1.8271C112.277 3.08135 114.359 4.91675 115.79 7.34247C117.235 9.75606 117.898 12.5241 117.898 15.5312C117.898 17.2775 117.615 18.9993 117.061 20.6859C116.523 22.3239 115.765 23.9282 114.804 25.4982C113.889 27.007 112.816 28.5064 111.592 29.9972L111.585 30.0058L111.578 30.0143C110.389 31.4412 109.089 32.8812 107.68 34.3344L102.424 40.125H119.648ZM95.6484 43.125H116.648V49.125H86.1484V43.9688L100.961 27.8125C102.586 25.9792 103.867 24.3958 104.805 23.0625C105.742 21.7292 106.398 20.5312 106.773 19.4688C107.169 18.3854 107.367 17.3333 107.367 16.3125C107.367 14.875 107.096 13.6146 106.555 12.5312C106.034 11.4271 105.263 10.5625 104.242 9.9375C103.221 9.29167 101.982 8.96875 100.523 8.96875C98.8359 8.96875 97.4193 9.33333 96.2734 10.0625C95.1276 10.7917 94.263 11.8021 93.6797 13.0938C93.0964 14.3646 92.8047 15.8229 92.8047 17.4688H85.2734C85.2734 16.4337 85.3659 15.4337 85.5508 14.4688C85.8386 12.9671 86.3503 11.5505 87.0859 10.2188C88.2943 8.01042 90.0443 6.26042 92.3359 4.96875C94.6276 3.65625 97.388 3 100.617 3C103.659 3 106.242 3.51042 108.367 4.53125C110.492 5.55208 112.107 7 113.211 8.875C114.336 10.75 114.898 12.9688 114.898 15.5312C114.898 16.9479 114.669 18.3542 114.211 19.75C113.753 21.1458 113.096 22.5417 112.242 23.9375C111.409 25.3125 110.419 26.6979 109.273 28.0938C108.128 29.4688 106.867 30.8646 105.492 32.2812L95.6484 43.125Z" fill="#B3DB11"/>
<path fill-rule="evenodd" clip-rule="evenodd" d="M54.2193 51.9381L54.2086 51.9349C52.3269 51.3678 50.6105 50.472 49.08 49.2527C47.5153 48.0063 46.2239 46.4382 45.1839 44.6058L45.1721 44.585L45.1606 44.564C44.1421 42.7009 43.3897 40.5573 42.8637 38.1791L42.8608 38.1656L42.8579 38.1521C42.3461 35.7327 42.1055 33.0064 42.1055 30V22.5625C42.1055 18.8023 42.4748 15.4834 43.2846 12.6718C44.0785 9.89465 45.2572 7.47389 46.9083 5.53177C48.5264 3.60781 50.4944 2.16727 52.7947 1.2683L52.8055 1.26408C55.0299 0.40468 57.4449 0 60.0117 0C62.0682 0 64.0229 0.259007 65.8542 0.808128C67.7478 1.34863 69.4699 2.21855 70.9915 3.42327C72.5677 4.65462 73.8539 6.22044 74.8743 8.05642C75.934 9.90472 76.691 12.0517 77.1962 14.4387C77.7089 16.8406 77.9492 19.5581 77.9492 22.5625V30C77.9492 33.7423 77.5793 37.0706 76.7768 39.9295C76.0047 42.7333 74.8369 45.1804 73.1838 47.1483C71.5647 49.0759 69.5898 50.523 67.2814 51.442C65.0649 52.3326 62.6479 52.75 60.0742 52.75C58.0256 52.75 56.068 52.4877 54.2193 51.9381ZM66.168 48.6562C68.0013 47.9271 69.5742 46.7812 70.8867 45.2188C72.1992 43.6562 73.1992 41.625 73.8867 39.125C74.5951 36.6042 74.9492 33.5625 74.9492 30V22.5625C74.9492 19.7083 74.7201 17.2083 74.2617 15.0625C73.8034 12.8958 73.1367 11.0521 72.2617 9.53125C71.4076 7.98958 70.3659 6.73958 69.1367 5.78125C67.9284 4.82292 66.5534 4.125 65.0117 3.6875C63.4909 3.22917 61.8242 3 60.0117 3C57.7617 3 55.7201 3.35417 53.8867 4.0625C52.0742 4.77083 50.5117 5.90625 49.1992 7.46875C47.8867 9.01042 46.8763 11.0208 46.168 13.5C45.4596 15.9583 45.1055 18.9792 45.1055 22.5625V30C45.1055 32.8542 45.3346 35.3646 45.793 37.5312C46.2721 39.6979 46.9388 41.5625 47.793 43.125C48.668 44.6667 49.7201 45.9271 50.9492 46.9062C52.1784 47.8854 53.5534 48.6042 55.0742 49.0625C56.6159 49.5208 58.2826 49.75 60.0742 49.75C62.3242 49.75 64.3555 49.3854 66.168 48.6562ZM64.1393 17.1057L64.1383 17.0991C63.9562 15.8785 63.6996 14.9717 63.4168 14.3212L63.4012 14.2855L63.3866 14.2494C63.1071 13.5579 62.8075 13.1321 62.5466 12.8713L62.5287 12.8533L62.511 12.8351C62.2099 12.5235 61.9137 12.343 61.611 12.2366L61.5773 12.2248L61.5438 12.2121C61.1626 12.0679 60.6654 11.9688 60.0117 11.9688C59.246 11.9688 58.6741 12.1166 58.2284 12.3395L58.2037 12.3518L58.1789 12.3637C57.8381 12.5263 57.4705 12.8196 57.103 13.3954C56.7378 13.9675 56.3639 14.8775 56.077 16.252C55.8159 17.5822 55.668 19.2976 55.668 21.4375V31.0625C55.668 32.7888 55.7665 34.25 55.9476 35.4634C56.1289 36.6783 56.3866 37.6216 56.6829 38.3358C56.9847 39.0425 57.3052 39.5409 57.6103 39.8885C57.9092 40.1886 58.2128 40.3801 58.5304 40.5022C58.9526 40.6559 59.4577 40.75 60.0742 40.75C60.8699 40.75 61.4502 40.5985 61.8888 40.3792C62.2388 40.2043 62.6166 39.8929 62.9915 39.297C63.3689 38.6762 63.7362 37.7279 64.0032 36.3397C64.2693 34.9558 64.418 33.208 64.418 31.0625V21.4375C64.418 19.733 64.3195 18.2952 64.1393 17.1057ZM65.543 40.875C64.918 41.875 64.1471 42.6042 63.2305 43.0625C62.3138 43.5208 61.2617 43.75 60.0742 43.75C59.1367 43.75 58.2721 43.6042 57.4805 43.3125C56.7096 43.0208 56.0221 42.5625 55.418 41.9375C54.8346 41.2917 54.3346 40.4792 53.918 39.5C53.5013 38.5 53.1888 37.3021 52.9805 35.9062C52.7721 34.5104 52.668 32.8958 52.668 31.0625V21.4375C52.668 19.1667 52.8242 17.2396 53.1367 15.6562C53.4701 14.0521 53.9492 12.7604 54.5742 11.7812C55.1992 10.8021 55.9701 10.0938 56.8867 9.65625C57.8034 9.19792 58.8451 8.96875 60.0117 8.96875C60.9701 8.96875 61.8346 9.11458 62.6055 9.40625C63.3763 9.67708 64.0638 10.125 64.668 10.75C65.2721 11.3542 65.7721 12.1458 66.168 13.125C66.5846 14.0833 66.8971 15.2604 67.1055 16.6562C67.3138 18.0312 67.418 19.625 67.418 21.4375V31.0625C67.418 33.3333 67.2617 35.2812 66.9492 36.9062C66.6367 38.5312 66.168 39.8542 65.543 40.875Z" fill="#B3DB11"/>
<path fill-rule="evenodd" clip-rule="evenodd" d="M37.9375 40.125V52.125H1.4375V42.8016L17.0215 25.8039C18.5968 24.0257 19.7932 22.5408 20.6397 21.337C21.4832 20.1372 21.9804 19.1876 22.2335 18.4703L22.239 18.4547L22.2447 18.4392C22.5355 17.6433 22.6562 16.9396 22.6562 16.3125C22.6562 15.2543 22.4584 14.4687 22.1605 13.8729L22.1451 13.8422L22.1305 13.8111C21.8538 13.2246 21.4764 12.8093 20.9648 12.4961L20.946 12.4845L20.9273 12.4727C20.4776 12.1882 19.8216 11.9688 18.8125 11.9688C17.5573 11.9688 16.733 12.2372 16.1731 12.5935C15.5421 12.995 15.0569 13.5446 14.7029 14.3285L14.6991 14.3369L14.6952 14.3453C14.3212 15.1601 14.0938 16.1792 14.0938 17.4688V20.4688H0.5625V17.4688C0.5625 14.3485 1.2799 11.43 2.74604 8.77355C4.23416 6.05616 6.39219 3.91278 9.14313 2.36028C11.9776 0.739347 15.2738 0 18.9062 0C22.2718 0 25.325 0.563526 27.9553 1.8271C30.566 3.08128 32.6475 4.91652 34.0788 7.34203C35.5241 9.75572 36.1875 12.524 36.1875 15.5312C36.1875 17.2775 35.9041 18.9993 35.3503 20.6859C34.8124 22.3239 34.0536 23.9282 33.0933 25.4982C32.1785 27.007 31.1051 28.5064 29.8813 29.9972L29.8743 30.0058L29.8672 30.0143C28.6781 31.4412 27.3781 32.8812 25.9691 34.3344L20.7126 40.125H37.9375ZM13.9375 43.125H34.9375V49.125H4.4375V43.9688L19.25 27.8125C20.875 25.9792 22.1562 24.3958 23.0938 23.0625C24.0312 21.7292 24.6875 20.5312 25.0625 19.4688C25.4583 18.3854 25.6562 17.3333 25.6562 16.3125C25.6562 14.875 25.3854 13.6146 24.8438 12.5312C24.3229 11.4271 23.5521 10.5625 22.5312 9.9375C21.5104 9.29167 20.2708 8.96875 18.8125 8.96875C17.125 8.96875 15.7083 9.33333 14.5625 10.0625C13.4167 10.7917 12.5521 11.8021 11.9688 13.0938C11.3854 14.3646 11.0938 15.8229 11.0938 17.4688H3.5625C3.5625 16.4337 3.65496 15.4337 3.83989 14.4688C4.12767 12.9671 4.63938 11.5505 5.375 10.2188C6.58333 8.01042 8.33333 6.26042 10.625 4.96875C12.9167 3.65625 15.6771 3 18.9062 3C21.9479 3 24.5312 3.51042 26.6562 4.53125C28.7812 5.55208 30.3958 7 31.5 8.875C32.625 10.75 33.1875 12.9688 33.1875 15.5312C33.1875 16.9479 32.9583 18.3542 32.5 19.75C32.0417 21.1458 31.3854 22.5417 30.5312 23.9375C29.6979 25.3125 28.7083 26.6979 27.5625 28.0938C26.4167 29.4688 25.1562 30.8646 23.7812 32.2812L13.9375 43.125Z" fill="#B3DB11"/>
</svg>
