<svg width="20" height="25" viewBox="0 0 20 25" fill="none" xmlns="http://www.w3.org/2000/svg">
<path d="M9.91972 14.0166C8.7633 14.018 7.64215 13.6185 6.7472 12.8861C5.85224 12.1537 5.23882 11.1338 5.01139 9.99993C4.99326 9.88049 5.00132 9.75854 5.035 9.64253C5.06868 9.52652 5.12718 9.41921 5.20645 9.32806C5.28572 9.2369 5.38386 9.16406 5.49407 9.1146C5.60428 9.06513 5.72393 9.04022 5.84472 9.04159C6.04325 9.03871 6.23628 9.1068 6.38906 9.2336C6.54184 9.36041 6.64432 9.5376 6.67806 9.73326C6.835 10.4824 7.24495 11.1546 7.83905 11.6372C8.43314 12.1197 9.17519 12.3831 9.94056 12.3831C10.7059 12.3831 11.448 12.1197 12.0421 11.6372C12.6362 11.1546 13.0461 10.4824 13.2031 9.73326C13.2368 9.5376 13.3393 9.36041 13.4921 9.2336C13.6448 9.1068 13.8379 9.03871 14.0364 9.04159C14.1572 9.04022 14.2768 9.06513 14.387 9.1146C14.4973 9.16406 14.5954 9.2369 14.6747 9.32806C14.7539 9.41921 14.8124 9.52652 14.8461 9.64253C14.8798 9.75854 14.8879 9.88049 14.8697 9.99993C14.6409 11.1408 14.0214 12.1662 13.1178 12.8994C12.2143 13.6326 11.0833 14.0277 9.91972 14.0166Z" fill="black"/>
<path d="M17.3365 25H2.50313C2.16403 25.0005 1.8284 24.9319 1.51664 24.7985C1.20488 24.6651 0.923513 24.4697 0.689655 24.2242C0.455798 23.9786 0.274338 23.6881 0.156315 23.3702C0.0382919 23.0523 -0.0138278 22.7137 0.00312719 22.375L0.678127 8.00837C0.706064 7.36428 0.981738 6.75589 1.44759 6.31023C1.91343 5.86457 2.53344 5.61609 3.17813 5.6167H16.6615C17.3062 5.61609 17.9262 5.86457 18.392 6.31023C18.8579 6.75589 19.1335 7.36428 19.1615 8.00837L19.8365 22.375C19.8534 22.7137 19.8013 23.0523 19.6833 23.3702C19.5653 23.6881 19.3838 23.9786 19.1499 24.2242C18.9161 24.4697 18.6347 24.6651 18.3229 24.7985C18.0112 24.9319 17.6756 25.0005 17.3365 25ZM3.17813 7.2917C2.95711 7.2917 2.74515 7.3795 2.58887 7.53578C2.43259 7.69206 2.34479 7.90402 2.34479 8.12503L1.66979 22.4584C1.66414 22.5713 1.68152 22.6841 1.72086 22.7901C1.7602 22.896 1.82068 22.9929 1.89864 23.0747C1.97659 23.1566 2.07038 23.2217 2.1743 23.2662C2.27822 23.3107 2.3901 23.3335 2.50313 23.3334H17.3365C17.4495 23.3335 17.5614 23.3107 17.6653 23.2662C17.7692 23.2217 17.863 23.1566 17.941 23.0747C18.0189 22.9929 18.0794 22.896 18.1187 22.7901C18.1581 22.6841 18.1754 22.5713 18.1698 22.4584L17.4948 8.0917C17.4948 7.87069 17.407 7.65873 17.2507 7.50244C17.0944 7.34616 16.8825 7.25837 16.6615 7.25837L3.17813 7.2917Z" fill="black"/>
<path d="M14.9199 6.45833H13.2533V5C13.2533 4.11594 12.9021 3.2681 12.2769 2.64298C11.6518 2.01786 10.804 1.66667 9.91992 1.66667C9.03587 1.66667 8.18802 2.01786 7.5629 2.64298C6.93778 3.2681 6.58659 4.11594 6.58659 5V6.45833H4.91992V5C4.91992 3.67392 5.44671 2.40215 6.38439 1.46447C7.32207 0.526784 8.59384 0 9.91992 0C11.246 0 12.5178 0.526784 13.4555 1.46447C14.3931 2.40215 14.9199 3.67392 14.9199 5V6.45833Z" fill="black"/>
</svg>
