<svg width="18" height="23" viewBox="0 0 18 23" fill="none" xmlns="http://www.w3.org/2000/svg">
<path d="M8.80013 13.1175C7.81008 13.1187 6.85022 12.7722 6.08401 12.137C5.31781 11.5018 4.79263 10.6172 4.59792 9.63375C4.5824 9.53016 4.5893 9.4244 4.61814 9.32377C4.64697 9.22315 4.69706 9.13009 4.76492 9.05102C4.83278 8.97196 4.91681 8.90879 5.01116 8.86589C5.10552 8.82299 5.20795 8.80138 5.31137 8.80257C5.48134 8.80006 5.6466 8.85912 5.7774 8.9691C5.9082 9.07908 5.99594 9.23276 6.02482 9.40247C6.15918 10.0522 6.51016 10.6353 7.01879 11.0538C7.52741 11.4723 8.16271 11.7007 8.81797 11.7007C9.47323 11.7007 10.1085 11.4723 10.6172 11.0538C11.1258 10.6353 11.4768 10.0522 11.6111 9.40247C11.64 9.23276 11.7277 9.07908 11.8585 8.9691C11.9893 8.85912 12.1546 8.80006 12.3246 8.80257C12.428 8.80138 12.5304 8.82299 12.6248 8.86589C12.7191 8.90879 12.8032 8.97196 12.871 9.05102C12.9389 9.13009 12.989 9.22315 13.0178 9.32377C13.0466 9.4244 13.0535 9.53016 13.038 9.63375C12.8421 10.6233 12.3117 11.5126 11.5382 12.1485C10.7646 12.7844 9.7963 13.1271 8.80013 13.1175Z" fill="#6E860B"/>
<path d="M15.15 22.6436H2.45064C2.16033 22.644 1.87298 22.5845 1.60607 22.4688C1.33916 22.3531 1.09827 22.1837 0.898057 21.9707C0.697842 21.7577 0.542488 21.5057 0.441444 21.23C0.3404 20.9543 0.295779 20.6606 0.310294 20.3669L0.888187 7.90638C0.912104 7.34775 1.14812 6.82007 1.54695 6.43354C1.94578 6.04701 2.47658 5.83151 3.02853 5.83203H14.5721C15.124 5.83151 15.6549 6.04701 16.0537 6.43354C16.4525 6.82007 16.6885 7.34775 16.7124 7.90638L17.2903 20.3669C17.3049 20.6606 17.2602 20.9543 17.1592 21.23C17.0581 21.5057 16.9028 21.7577 16.7026 21.9707C16.5024 22.1837 16.2615 22.3531 15.9946 22.4688C15.7277 22.5845 15.4403 22.644 15.15 22.6436ZM3.02853 7.2848C2.83931 7.2848 2.65784 7.36094 2.52405 7.49649C2.39025 7.63204 2.31508 7.81587 2.31508 8.00756L1.73719 20.4392C1.73235 20.5371 1.74722 20.635 1.78091 20.7269C1.81459 20.8188 1.86637 20.9028 1.93311 20.9738C1.99985 21.0448 2.08014 21.1013 2.16911 21.1398C2.25808 21.1784 2.35387 21.1982 2.45064 21.1981H15.15C15.2468 21.1982 15.3426 21.1784 15.4315 21.1398C15.5205 21.1013 15.6008 21.0448 15.6675 20.9738C15.7343 20.9028 15.786 20.8188 15.8197 20.7269C15.8534 20.635 15.8683 20.5371 15.8634 20.4392L15.2856 7.97865C15.2856 7.78696 15.2104 7.60312 15.0766 7.46758C14.9428 7.33203 14.7613 7.25589 14.5721 7.25589L3.02853 7.2848Z" fill="#6E860B"/>
<path d="M13.0809 6.56213H11.654V5.29729C11.654 4.53053 11.3533 3.79518 10.8182 3.253C10.283 2.71082 9.55709 2.40623 8.80022 2.40623C8.04334 2.40623 7.31747 2.71082 6.78228 3.253C6.24709 3.79518 5.94643 4.53053 5.94643 5.29729V6.56213H4.51953V5.29729C4.51953 4.14715 4.97053 3.04412 5.77332 2.23085C6.5761 1.41758 7.66491 0.960693 8.80022 0.960693C9.93553 0.960693 11.0243 1.41758 11.8271 2.23085C12.6299 3.04412 13.0809 4.14715 13.0809 5.29729V6.56213Z" fill="#6E860B"/>
</svg>
