<svg width="46" height="80" viewBox="0 0 46 80" fill="none" xmlns="http://www.w3.org/2000/svg">
<path d="M40.0217 21.7784C40.4342 21.0658 40.6843 20.2407 40.6843 19.353V11.0642C40.6843 8.36381 38.4839 6.16346 35.7835 6.16346H34.3583L33.1706 0.975153C33.0331 0.400063 32.533 0 31.9454 0H14.0426C13.455 0 12.9549 0.400063 12.8299 0.975153L11.6422 6.16346H10.217C7.51658 6.16346 5.31623 8.36381 5.31623 11.0642V19.353C5.31623 20.2407 5.56627 21.0658 5.97884 21.7784C2.76583 21.8909 0.19043 24.5288 0.19043 27.7668V37.6559V64.7101V73.9991C0.19043 77.3121 2.89085 80 6.19137 80H39.8091C43.1221 80 45.8101 77.2996 45.8101 73.9991V64.7101V37.6559V27.7668C45.8101 24.5288 43.2347 21.8909 40.0217 21.7784ZM15.0428 2.50039H30.9452L31.7829 6.16346H14.2051L15.0428 2.50039ZM7.81662 11.0642C7.81662 9.73902 8.89179 8.66385 10.217 8.66385H12.6424H33.3581H35.7835C37.1087 8.66385 38.1839 9.73902 38.1839 11.0642V19.353C38.1839 20.6782 37.1087 21.7534 35.7835 21.7534H10.217C8.89179 21.7534 7.81662 20.6782 7.81662 19.353V11.0642ZM6.19137 24.2663H10.217H35.7835H39.8091C41.7469 24.2663 43.3097 25.8415 43.3097 27.7668V36.4057H2.69082V27.7668C2.69082 25.829 4.25357 24.2663 6.19137 24.2663ZM43.3097 63.4724H2.69082V38.9061H43.3097V63.4724ZM39.8091 77.5121H6.19137C4.25357 77.5121 2.69082 75.9369 2.69082 74.0116V65.9728H43.3097V74.0116C43.3097 75.9369 41.7344 77.5121 39.8091 77.5121Z" fill="#B3DB11"/>
<path d="M11.7673 19.8781C12.4549 19.8781 13.0175 19.3155 13.0175 18.6279V11.7143C13.0175 11.0267 12.4549 10.4641 11.7673 10.4641C11.0797 10.4641 10.5171 11.0267 10.5171 11.7143V18.6279C10.5171 19.3155 11.0797 19.8781 11.7673 19.8781Z" fill="#B3DB11"/>
<path d="M17.3806 19.8781C18.0682 19.8781 18.6308 19.3155 18.6308 18.6279V11.7143C18.6308 11.0267 18.0682 10.4641 17.3806 10.4641C16.693 10.4641 16.1304 11.0267 16.1304 11.7143V18.6279C16.1304 19.3155 16.693 19.8781 17.3806 19.8781Z" fill="#B3DB11"/>
<path d="M22.9938 19.8781C23.6815 19.8781 24.244 19.3155 24.244 18.6279V11.7143C24.244 11.0267 23.6815 10.4641 22.9938 10.4641C22.3062 10.4641 21.7437 11.0267 21.7437 11.7143V18.6279C21.7437 19.3155 22.3062 19.8781 22.9938 19.8781Z" fill="#B3DB11"/>
<path d="M28.6198 19.8781C29.3074 19.8781 29.87 19.3155 29.87 18.6279V11.7143C29.87 11.0267 29.3074 10.4641 28.6198 10.4641C27.9322 10.4641 27.3696 11.0267 27.3696 11.7143V18.6279C27.3696 19.3155 27.9197 19.8781 28.6198 19.8781Z" fill="#B3DB11"/>
<path d="M34.2336 19.8781C34.9212 19.8781 35.4838 19.3155 35.4838 18.6279V11.7143C35.4838 11.0267 34.9212 10.4641 34.2336 10.4641C33.546 10.4641 32.9834 11.0267 32.9834 11.7143V18.6279C32.9834 19.3155 33.546 19.8781 34.2336 19.8781Z" fill="#B3DB11"/>
<path d="M6.17875 50.9704C5.95372 53.7584 7.81651 56.9964 10.7045 58.8467C11.8921 59.6093 13.8425 60.4969 16.4304 60.4969C18.3432 60.4969 20.6185 59.9969 23.2064 58.6341C25.6443 59.8468 27.7946 60.2969 29.6199 60.2969C32.2953 60.2969 34.2957 59.3593 35.4958 58.5591C38.3588 56.6713 40.1716 53.3958 39.8965 50.6204C39.534 46.8198 40.7967 44.3444 40.8092 44.3319C40.9842 43.9944 41.0092 43.5943 40.8592 43.2442C40.7092 42.8942 40.3966 42.6316 40.034 42.5316C35.5833 41.3439 31.7828 41.8315 28.7073 43.9569C25.6693 46.0697 23.969 49.3827 23.0314 52.1581C22.0312 49.4202 20.2935 46.1822 17.268 44.1444C14.1675 42.0566 10.3544 41.6315 5.92871 42.8817C5.56616 42.9817 5.26611 43.2567 5.11609 43.6068C4.96606 43.9569 4.99107 44.3569 5.16609 44.6945C5.1911 44.707 6.4913 47.1699 6.17875 50.9704ZM30.1575 45.9947C32.2828 44.5194 34.9332 44.0569 38.0337 44.6195C37.6087 45.9572 37.1711 48.12 37.4336 50.8454C37.5837 52.4082 36.4835 54.9086 34.1456 56.4588C31.6577 58.1091 28.4947 58.1841 25.1192 56.7339C26.6695 54.8711 29.9325 51.3955 33.258 50.6579C33.9331 50.5079 34.3582 49.8328 34.2081 49.1702C34.0581 48.5076 33.383 48.07 32.7204 48.22C30.0325 48.8201 27.4946 50.7579 25.5693 52.5957C26.3819 50.2703 27.7946 47.6324 30.1575 45.9947ZM15.8678 46.2072C18.2556 47.8075 19.7059 50.4329 20.581 52.7457C18.6432 50.9329 16.0678 49.0451 13.3674 48.4701C12.6923 48.3325 12.0297 48.7576 11.8921 49.4327C11.7546 50.1078 12.1797 50.7704 12.8548 50.9079C16.1803 51.608 19.4933 55.0336 21.0811 56.8589C17.7306 58.3591 14.5676 58.3341 12.0547 56.7213C9.6918 55.2086 8.55413 52.7207 8.67914 51.158C8.90418 48.4325 8.4166 46.2697 7.97903 44.9445C11.067 44.3444 13.7174 44.7695 15.8678 46.2072Z" fill="#B3DB11"/>
</svg>
