<svg width="91" height="91" viewBox="0 0 91 91" fill="none" xmlns="http://www.w3.org/2000/svg">
<g clip-path="url(#clip0_1378_13916)">
<path d="M61.4961 19.3728H29.5039C28.5225 19.3728 27.7266 20.1685 27.7266 21.1501C27.7266 22.1318 28.5225 22.9275 29.5039 22.9275H61.4961C62.4775 22.9275 63.2734 22.1318 63.2734 21.1501C63.2734 20.1685 62.4775 19.3728 61.4961 19.3728Z" fill="#B3DB11"/>
<path d="M45.5 28.2595C44.5187 28.2595 43.7227 29.0575 43.7227 30.0369C43.7227 31.0162 44.5187 31.8142 45.5 31.8142C46.4793 31.8142 47.2773 31.0162 47.2773 30.0369C47.2773 29.0575 46.4793 28.2595 45.5 28.2595Z" fill="#B3DB11"/>
<path d="M72.1602 28.2595H52.6094C51.6281 28.2595 50.832 29.0575 50.832 30.0369C50.832 31.0162 51.6281 31.8142 52.6094 31.8142H72.1602C73.1395 31.8142 73.9375 31.0162 73.9375 30.0369C73.9375 29.0575 73.1395 28.2595 72.1602 28.2595Z" fill="#B3DB11"/>
<path d="M38.3906 28.2595H18.8398C17.8605 28.2595 17.0625 29.0575 17.0625 30.0369C17.0625 31.0162 17.8605 31.8142 18.8398 31.8142H38.3906C39.3699 31.8142 40.168 31.0162 40.168 30.0369C40.168 29.0575 39.3699 28.2595 38.3906 28.2595Z" fill="#B3DB11"/>
<path d="M24.1719 35.3689H18.8398C17.8584 35.3689 17.0625 36.1646 17.0625 37.1462C17.0625 38.1279 17.8584 38.9236 18.8398 38.9236H24.1719C25.1533 38.9236 25.9492 38.1279 25.9492 37.1462C25.9492 36.1646 25.1533 35.3689 24.1719 35.3689Z" fill="#B3DB11"/>
<path d="M31.9277 35.3689C30.9447 35.3689 30.1504 36.1651 30.1504 37.1462C30.1504 38.1273 30.9449 38.9236 31.9277 38.9236C32.909 38.9236 33.7051 38.1273 33.7051 37.1462C33.7051 36.1651 32.909 35.3689 31.9277 35.3689Z" fill="#B3DB11"/>
<path d="M51.3181 35.3689H39.6836C38.7043 35.3689 37.9062 36.1669 37.9062 37.1462C37.9062 38.1256 38.7043 38.9236 39.6836 38.9236H51.3181C52.2976 38.9236 53.0954 38.1256 53.0954 37.1462C53.0954 36.1669 52.2976 35.3689 51.3181 35.3689Z" fill="#B3DB11"/>
<path d="M59.0723 35.3689C58.0931 35.3689 57.2949 36.1669 57.2949 37.1462C57.2949 38.1256 58.0929 38.9236 59.0723 38.9236C60.0535 38.9236 60.8496 38.1256 60.8496 37.1462C60.8496 36.1669 60.0535 35.3689 59.0723 35.3689Z" fill="#B3DB11"/>
<path d="M72.1602 35.3689H66.8281C65.8467 35.3689 65.0508 36.1646 65.0508 37.1462C65.0508 38.1279 65.8467 38.9236 66.8281 38.9236H72.1602C73.1416 38.9236 73.9375 38.1279 73.9375 37.1462C73.9375 36.1646 73.1416 35.3689 72.1602 35.3689Z" fill="#B3DB11"/>
<path d="M72.1602 42.4783H18.8398C17.8584 42.4783 17.0625 43.274 17.0625 44.2556C17.0625 45.2372 17.8584 46.033 18.8398 46.033H72.1602C73.1416 46.033 73.9375 45.2372 73.9375 44.2556C73.9375 43.274 73.1416 42.4783 72.1602 42.4783Z" fill="#B3DB11"/>
<path d="M33.0586 49.5876H18.8398C17.8605 49.5876 17.0625 50.3857 17.0625 51.365C17.0625 52.3443 17.8605 53.1423 18.8398 53.1423H33.0586C34.0379 53.1423 34.8359 52.3443 34.8359 51.365C34.8359 50.3857 34.0379 49.5876 33.0586 49.5876Z" fill="#B3DB11"/>
<path d="M40.168 49.5876C39.1867 49.5876 38.3906 50.3857 38.3906 51.365C38.3906 52.3443 39.1867 53.1423 40.168 53.1423C41.1473 53.1423 41.9453 52.3443 41.9453 51.365C41.9453 50.3857 41.1473 49.5876 40.168 49.5876Z" fill="#B3DB11"/>
<path d="M89.2227 0H1.77734C0.795895 0 0 0.795717 0 1.77734V67.8945C0 68.8762 0.795895 69.6719 1.77734 69.6719H44.2503C45.0569 70.637 45.4335 71.9559 45.2604 73.2429L45.1614 73.9786L38.7148 80.4252C38.292 80.848 38.1102 81.4553 38.2308 82.0411C38.3515 82.6269 38.7591 83.1125 39.3148 83.3334L43.9983 85.1959L45.8608 89.8794C46.0817 90.435 46.5675 90.8424 47.1531 90.9634C47.2725 90.9879 47.3929 91 47.5123 91C47.9789 91 48.4324 90.816 48.7691 90.4794L56.9895 82.259L57.1496 82.1767C58.2739 81.5987 59.5636 81.5987 60.6879 82.1767L60.8481 82.259L69.0685 90.4794C69.4053 90.8162 69.8587 91 70.3252 91C70.4447 91 70.565 90.9879 70.6844 90.9634C71.2702 90.8425 71.7558 90.4352 71.9767 89.8794L73.8392 85.1959L78.5227 83.3334C79.0785 83.1125 79.4858 82.6268 79.6067 82.0411C79.7276 81.4555 79.5456 80.8482 79.1227 80.4252L72.6761 73.9786L72.5771 73.2431C72.404 71.9559 72.7808 70.637 73.5874 69.6721H89.2227C90.2041 69.6721 91 68.8763 91 67.8947V1.77734C91 0.795717 90.2041 0 89.2227 0ZM48.1657 86.0558L47.0184 83.1706C46.8376 82.7163 46.4779 82.3564 46.0236 82.1758L43.1386 81.0286L46.4985 77.6687L48.6622 78.0679C49.9099 78.298 50.9716 79.1158 51.5751 80.3118L52.3581 81.8634L48.1657 86.0558ZM63.0893 78.7104L62.8072 79.2692L62.3131 79.0152C60.1876 77.9228 57.6501 77.9228 55.5249 79.0152L55.0308 79.2692L54.7488 78.7104C53.6566 76.5461 51.6224 74.9991 49.3072 74.5722L48.6841 74.4572L48.7838 73.7168C49.1101 71.2903 48.3635 68.8833 46.7349 67.113L46.2271 66.5612L46.7349 66.0093C48.3635 64.2391 49.1101 61.8322 48.7838 59.4056L48.6841 58.6651L49.3071 58.5501C51.6224 58.1232 53.6568 56.5762 54.7488 54.412L55.0308 53.8532L55.5249 54.1071C57.6501 55.1995 60.188 55.1995 62.3131 54.1071L62.8072 53.8532L63.0893 54.412C64.1815 56.5762 66.2157 58.1232 68.5308 58.5501L69.154 58.6651L69.0542 59.4056C68.7279 61.832 69.4746 64.2391 71.1032 66.0093L71.611 66.5612L71.1032 67.113C69.4746 68.8833 68.7279 71.2901 69.0542 73.7168L69.154 74.4572L68.531 74.5722C66.2157 74.9991 64.1813 76.5461 63.0893 78.7104ZM74.6993 81.0286L71.8143 82.1758C71.36 82.3564 71.0003 82.7163 70.8195 83.1706L69.6722 86.0558L65.4798 81.8634L66.2627 80.3118C66.8663 79.1158 67.9279 78.298 69.1758 78.0679L71.3394 77.6687L74.6993 81.0286ZM71.4636 55.4764L69.1756 55.0543C67.9279 54.8241 66.8663 54.0064 66.2627 52.8104L65.1741 50.6529C64.9608 50.23 64.5874 49.9098 64.1369 49.7633C63.6867 49.6167 63.1963 49.6561 62.7749 49.8728L60.6881 50.9454C59.5638 51.5234 58.2741 51.5234 57.1498 50.9454L55.063 49.8728C54.6416 49.6561 54.1514 49.6169 53.701 49.7633C53.2505 49.9098 52.877 50.2299 52.6638 50.6529L51.5751 52.8104C50.9716 54.0064 49.9099 54.8241 48.6621 55.0543L46.3743 55.4764C45.4421 55.6483 44.8088 56.5217 44.9352 57.4612L45.1012 58.6954L42.74 57.5148C42.2398 57.2648 41.6506 57.2648 41.1505 57.5148L38.3906 58.8948L35.6308 57.5148C35.1306 57.2648 34.5414 57.2648 34.0413 57.5148L31.2812 58.8948L28.5214 57.5148C28.0212 57.2648 27.4321 57.2648 26.9319 57.5148L24.1719 58.8948L21.412 57.5148C20.9119 57.2648 20.3227 57.2648 19.8225 57.5148L17.0625 58.8948L14.3026 57.5148C13.856 57.2916 13.3361 57.2665 12.8697 57.4457L10.6641 58.294V56.5835L12.2537 53.404C12.5038 52.9037 12.5038 52.3147 12.2537 51.8144L10.874 49.0547L12.2539 46.2948C12.504 45.7945 12.504 45.2055 12.2539 44.7052L10.874 41.9453L12.2539 39.1855C12.504 38.6851 12.504 38.0961 12.2539 37.5958L10.874 34.8359L12.2539 32.0761C12.504 31.5758 12.504 30.9867 12.2539 30.4864L10.874 27.7266L12.2539 24.9667C12.504 24.4664 12.504 23.8774 12.2539 23.377L10.874 20.6172L12.2539 17.8573C12.504 17.357 12.504 16.768 12.2539 16.2677L10.6641 13.0882V11.3777L12.8697 12.226C13.3359 12.4051 13.8558 12.3801 14.3026 12.1569L17.0625 10.7769L19.8224 12.1569C20.3225 12.4069 20.9117 12.4069 21.4118 12.1569L24.1719 10.7769L26.9317 12.1569C27.4319 12.4069 28.0211 12.4069 28.5212 12.1569L31.2812 10.7769L34.0411 12.1569C34.5413 12.4069 35.1304 12.4069 35.6306 12.1569L38.3906 10.7769L41.1505 12.1569C41.6506 12.4069 42.2398 12.4069 42.74 12.1569L45.5 10.7769L48.2599 12.1569C48.76 12.4069 49.3492 12.4069 49.8493 12.1569L52.6094 10.7769L55.3692 12.1569C55.8694 12.4069 56.4586 12.4069 56.9587 12.1569L59.7188 10.7769L62.4786 12.1569C62.9788 12.4069 63.5679 12.4069 64.0681 12.1569L66.8281 10.7769L69.588 12.1569C70.0881 12.4069 70.6773 12.4069 71.1775 12.1569L73.9375 10.7769L76.6974 12.1569C77.1442 12.3803 77.6639 12.4053 78.1303 12.226L80.3359 11.3777V13.0882L78.7463 16.2677C78.4962 16.768 78.4962 17.357 78.7463 17.8573L80.126 20.6172L78.7461 23.377C78.496 23.8774 78.496 24.4664 78.7461 24.9667L80.126 27.7266L78.7461 30.4864C78.496 30.9867 78.496 31.5758 78.7461 32.0761L80.126 34.8359L78.7461 37.5958C78.496 38.0961 78.496 38.6851 78.7461 39.1855L80.126 41.9453L78.7461 44.7052C78.496 45.2055 78.496 45.7945 78.7461 46.2948L80.126 49.0547L78.7461 51.8145C78.496 52.3149 78.496 52.9039 78.7461 53.4042L80.3359 56.5837V58.2942L78.1303 57.4459C77.6641 57.2667 77.144 57.2918 76.6974 57.515L73.9375 58.8948L72.7872 58.3196L72.9027 57.4612C73.0291 56.5218 72.3958 55.6485 71.4636 55.4764ZM87.4453 66.1172H75.7461C75.6754 65.8421 75.5389 65.5803 75.3343 65.3577L73.7192 63.6026C73.3842 63.2384 73.1149 62.8161 72.9182 62.3595L73.1425 62.4717C73.6426 62.7218 74.2318 62.7218 74.732 62.4717L77.5857 61.045L81.475 62.541C81.6816 62.6204 81.8977 62.6595 82.1129 62.6595C82.4673 62.6595 82.8191 62.5536 83.1193 62.3473C83.602 62.0158 83.8904 61.4677 83.8904 60.8822V56.1641C83.8904 55.8882 83.8263 55.6161 83.7028 55.3692L82.3232 52.6094L83.7031 49.8495C83.9532 49.3492 83.9532 48.7602 83.7031 48.2599L82.3232 45.5L83.7031 42.7401C83.9532 42.2398 83.9532 41.6508 83.7031 41.1505L82.3232 38.3906L83.7031 35.6308C83.9532 35.1304 83.9532 34.5414 83.7031 34.0411L82.3232 31.2812L83.7031 28.5214C83.9532 28.0211 83.9532 27.4321 83.7031 26.9317L82.3232 24.1719L83.7031 21.412C83.9532 20.9117 83.9532 20.3227 83.7031 19.8224L82.3232 17.0625L83.7031 14.3026C83.8265 14.0558 83.8906 13.7837 83.8906 13.5078V8.78985C83.8906 8.2044 83.6022 7.65626 83.1194 7.32479C82.6367 6.99331 82.0218 6.9208 81.4752 7.13106L77.5859 8.62705L74.7322 7.20038C74.232 6.9503 73.6428 6.9503 73.1427 7.20038L70.3828 8.58013L67.6229 7.2002C67.1228 6.95013 66.5336 6.95013 66.0335 7.2002L63.2734 8.58013L60.5136 7.2002C60.0134 6.95013 59.4242 6.95013 58.9241 7.2002L56.1641 8.58013L53.4042 7.2002C52.9041 6.95013 52.3149 6.95013 51.8147 7.2002L49.0547 8.58013L46.2948 7.2002C45.7947 6.95013 45.2055 6.95013 44.7053 7.2002L41.9453 8.58013L39.1855 7.2002C38.6853 6.95013 38.0961 6.95013 37.596 7.2002L34.8359 8.58013L32.0761 7.2002C31.5759 6.95013 30.9867 6.95013 30.4866 7.2002L27.7266 8.58013L24.9667 7.2002C24.4666 6.95013 23.8774 6.95013 23.3772 7.2002L20.6172 8.58013L17.8573 7.2002C17.3572 6.95013 16.768 6.95013 16.2678 7.2002L13.4141 8.62687L9.52479 7.13106C8.97825 6.9208 8.36329 6.99331 7.88056 7.32479C7.39784 7.65626 7.10938 8.2044 7.10938 8.78985V13.5078C7.10938 13.7837 7.17354 14.0558 7.29706 14.3026L8.67681 17.0625L7.29689 19.8224C7.04681 20.3227 7.04681 20.9117 7.29689 21.412L8.67681 24.1719L7.29689 26.9317C7.04681 27.4321 7.04681 28.0211 7.29689 28.5214L8.67681 31.2812L7.29689 34.0411C7.04681 34.5414 7.04681 35.1304 7.29689 35.6308L8.67681 38.3906L7.29689 41.1505C7.04681 41.6508 7.04681 42.2398 7.29689 42.7401L8.67681 45.5L7.29689 48.2599C7.04681 48.7602 7.04681 49.3492 7.29689 49.8495L8.67681 52.6094L7.29689 55.3692C7.17354 55.6161 7.10938 55.8882 7.10938 56.1641V60.8818C7.10938 61.4673 7.39784 62.0154 7.88056 62.3469C8.36329 62.6786 8.97825 62.7509 9.52479 62.5406L13.4141 61.0446L16.2678 62.4713C16.768 62.7214 17.3572 62.7214 17.8573 62.4713L20.6172 61.0917L23.377 62.4717C23.8772 62.7218 24.4664 62.7218 24.9665 62.4717L27.7266 61.0917L30.4864 62.4717C30.9866 62.7218 31.5758 62.7218 32.0759 62.4717L34.8359 61.0917L37.5958 62.4717C38.0959 62.7218 38.6851 62.7218 39.1853 62.4717L41.9453 61.0917L44.7052 62.4717C44.7494 62.4939 44.7946 62.5131 44.8402 62.5312C44.6526 62.9219 44.411 63.2845 44.1185 63.6024L42.5034 65.3577C42.2988 65.5803 42.1623 65.8421 42.0916 66.1172H3.55469V3.55469H87.4453V66.1172Z" fill="#B3DB11"/>
<path d="M58.918 59.4519C54.9979 59.4519 51.8086 62.6412 51.8086 66.5613C51.8086 70.4814 54.9979 73.6707 58.918 73.6707C62.8381 73.6707 66.0273 70.4814 66.0273 66.5613C66.0273 62.6412 62.8381 59.4519 58.918 59.4519ZM58.918 70.116C56.9579 70.116 55.3633 68.5213 55.3633 66.5613C55.3633 64.6012 56.9579 63.0066 58.918 63.0066C60.878 63.0066 62.4727 64.6012 62.4727 66.5613C62.4727 68.5213 60.878 70.116 58.918 70.116Z" fill="#B3DB11"/>
</g>
<defs>
<clipPath id="clip0_1378_13916">
<rect width="91" height="91" fill="white"/>
</clipPath>
</defs>
</svg>
