<svg width="14" height="14" viewBox="0 0 14 14" fill="none" xmlns="http://www.w3.org/2000/svg">
<g clip-path="url(#clip0_785_5597)">
<path d="M7 14C3.15 14 0 10.85 0 7C0 3.15 3.15 0 7 0C10.85 0 14 3.15 14 7C14 10.85 10.85 14 7 14ZM7 0.875C3.63125 0.875 0.875 3.63125 0.875 7C0.875 10.3687 3.63125 13.125 7 13.125C10.3687 13.125 13.125 10.3687 13.125 7C13.125 3.63125 10.3687 0.875 7 0.875Z" fill="#6E860B"/>
<path d="M5.68613 9.79998L3.62988 7.74373L4.24238 7.13123L5.68613 8.57498L9.75488 4.50623L10.3674 5.11873L5.68613 9.79998Z" fill="#6E860B"/>
</g>
<defs>
<clipPath id="clip0_785_5597">
<rect width="14" height="14" fill="white"/>
</clipPath>
</defs>
</svg>
