<svg width="41" height="40" viewBox="0 0 41 40" fill="none" xmlns="http://www.w3.org/2000/svg">
<g clip-path="url(#clip0_785_5684)">
<path d="M33.2021 26.3041C32.2247 26.3041 31.2962 26.687 30.5957 27.3793C29.8952 28.0798 29.5043 28.992 29.5043 29.9694C29.5043 30.9468 29.8871 31.859 30.5957 32.5595C31.3043 33.2518 32.2247 33.6346 33.2021 33.6346C35.2058 33.6346 36.8348 31.9893 36.8348 29.9694C36.8348 27.9494 35.2058 26.3041 33.2021 26.3041ZM33.2021 32.0056C32.0781 32.0056 31.1333 31.0771 31.1333 29.9694C31.1333 28.8617 32.0781 27.9331 33.2021 27.9331C34.3098 27.9331 35.2058 28.8454 35.2058 29.9694C35.2058 31.0934 34.3098 32.0056 33.2021 32.0056ZM34.1469 14.0948C34.0003 13.9564 33.8048 13.883 33.6012 13.883H29.4228C28.9749 13.883 28.6083 14.2496 28.6083 14.6975V21.3764C28.6083 21.8244 28.9749 22.1909 29.4228 22.1909H36.0528C36.5008 22.1909 36.8673 21.8244 36.8673 21.3764V16.9048C36.8673 16.6768 36.7696 16.4569 36.5986 16.3021L34.1469 14.0948ZM35.2383 20.5619H30.2373V15.5039H33.2835L35.2383 17.2632V20.5619ZM13.3121 26.3041C12.3347 26.3041 11.4061 26.687 10.7057 27.3793C10.0052 28.0798 9.61423 28.992 9.61423 29.9694C9.61423 30.9468 9.99705 31.859 10.7057 32.5595C11.4143 33.2518 12.3347 33.6346 13.3121 33.6346C15.3157 33.6346 16.9447 31.9893 16.9447 29.9694C16.9447 27.9494 15.3157 26.3041 13.3121 26.3041ZM13.3121 32.0056C12.188 32.0056 11.2432 31.0771 11.2432 29.9694C11.2432 28.8617 12.188 27.9331 13.3121 27.9331C14.4198 27.9331 15.3157 28.8454 15.3157 29.9694C15.3157 31.0934 14.4198 32.0056 13.3121 32.0056ZM7.87935 27.306H6.24221V25.1394C6.24221 24.6914 5.87569 24.3249 5.42771 24.3249C4.97974 24.3249 4.61322 24.6914 4.61322 25.1394V28.1205C4.61322 28.5684 4.97974 28.935 5.42771 28.935H7.87935C8.32733 28.935 8.69385 28.5684 8.69385 28.1205C8.69385 27.6725 8.32733 27.306 7.87935 27.306ZM12.0089 22.867C12.0089 22.419 11.6423 22.0525 11.1944 22.0525H1.3145C0.866524 22.0525 0.5 22.419 0.5 22.867C0.5 23.3149 0.866524 23.6815 1.3145 23.6815H11.1944C11.6423 23.6815 12.0089 23.3231 12.0089 22.867ZM2.96793 19.9266L12.8478 19.9836C13.2958 19.9836 13.6623 19.6253 13.6704 19.1773C13.6786 18.7212 13.3121 18.3546 12.8641 18.3546L2.98422 18.2976C2.97607 18.2976 2.97607 18.2976 2.97607 18.2976C2.5281 18.2976 2.16158 18.656 2.16158 19.104C2.15343 19.5601 2.51996 19.9266 2.96793 19.9266ZM4.62951 16.2288H14.5094C14.9573 16.2288 15.3239 15.8623 15.3239 15.4143C15.3239 14.9663 14.9573 14.5998 14.5094 14.5998H4.62951C4.18153 14.5998 3.81501 14.9663 3.81501 15.4143C3.81501 15.8623 4.18153 16.2288 4.62951 16.2288ZM40.1986 15.1292L34.3668 10.2993C34.2202 10.1771 34.041 10.1119 33.8456 10.1119H26.9875V7.17973C26.9875 6.73176 26.621 6.36523 26.173 6.36523H5.42771C4.97974 6.36523 4.61322 6.73176 4.61322 7.17973V13.1419C4.61322 13.5898 4.97974 13.9564 5.42771 13.9564C5.87569 13.9564 6.24221 13.5898 6.24221 13.1419V7.99423H25.3666V27.306H18.6877C18.2398 27.306 17.8732 27.6725 17.8732 28.1205C17.8732 28.5684 18.2398 28.935 18.6877 28.935H28.6328C29.0807 28.935 29.4473 28.5684 29.4473 28.1205C29.4473 27.6725 29.0807 27.306 28.6328 27.306H26.9956V11.7409H33.5605L38.871 16.1392L38.814 27.2897H37.9669C37.5189 27.2897 37.1524 27.6562 37.1524 28.1042C37.1524 28.5522 37.5189 28.9187 37.9669 28.9187H39.6203C40.0683 28.9187 40.4348 28.5603 40.4348 28.1123L40.5 15.7645C40.4919 15.5202 40.386 15.284 40.1986 15.1292Z" fill="#6E860B"/>
</g>
<defs>
<clipPath id="clip0_785_5684">
<rect width="40" height="40" fill="white" transform="translate(0.5)"/>
</clipPath>
</defs>
</svg>
