<svg width="80" height="80" viewBox="0 0 80 80" fill="none" xmlns="http://www.w3.org/2000/svg">
<path d="M36.3267 0V15.102H38.7756V2.44891H41.2246V15.102H43.6735V0H36.3267Z" fill="#B3DB11"/>
<path d="M33.3468 48.5713C28.1702 48.5713 23.959 52.7825 23.959 57.9591C23.959 63.1357 28.1702 67.3469 33.3468 67.3469H34.5713V48.5713H33.3468ZM27.654 53.9977L30.3909 56.7346H26.517C26.696 55.7314 27.092 54.8029 27.654 53.9977ZM26.5166 59.1836H30.3905L27.6537 61.9205C27.092 61.1154 26.696 60.1866 26.5166 59.1836ZM32.1224 64.7896C31.1193 64.6102 30.1905 64.2141 29.3854 63.6521L32.1224 60.915V64.7896ZM32.1224 55.003L29.3854 52.266C30.1904 51.7043 31.1193 51.308 32.1224 51.1285V55.003Z" fill="#B3DB11"/>
<path d="M54.2858 27.2134V26.1226H56.7347V20.4084H54.2858V17.1431H25.7142V20.4084H23.2653V26.1226H25.7142V27.2134C22.4253 28.1117 20 31.1242 20 34.694V75.5103C20 77.1804 21.9483 78.2318 26.5141 79.0259C30.127 79.6542 34.9164 80.0001 40 80.0001C45.0836 80.0001 49.873 79.6542 53.4859 79.0259C58.0519 78.232 60 77.1806 60 75.5103V34.694C60 31.1242 57.5747 28.1118 54.2858 27.2134ZM28.1633 19.592H51.8367V20.4082H28.1633V19.592ZM25.7142 22.8573H54.2856V23.6735H25.7142V22.8573ZM28.1633 26.9388V26.1226H51.8367V26.9388H28.1633ZM41.2245 29.3879V59.592H38.7756V29.3879H41.2245ZM57.5511 73.0143C56.4942 72.6074 55.0761 72.2613 53.2539 71.9556C53.1303 71.9345 53.0023 71.9134 52.8697 71.8924C52.8191 69.8071 52.347 67.1693 50.5631 65.3854C47.2703 62.0928 41.0653 63.2665 40.8028 63.3179L39.9959 63.4765L39.8373 64.2834C39.7858 64.5459 38.6119 70.751 41.9048 74.0437C43.8034 75.9423 46.6705 76.3559 48.8078 76.3559C50.3775 76.3559 51.5539 76.1329 51.6652 76.111L52.472 75.9524L52.6306 75.1456C52.6409 75.0935 52.6953 74.8048 52.7502 74.3542C52.7822 74.3595 52.8142 74.3648 52.8456 74.3701C55.3263 74.7863 56.5561 75.2254 57.143 75.5103C56.5033 75.8207 55.1 76.3148 52.1477 76.7621C48.7912 77.271 44.4772 77.5512 40 77.5512C30.3622 77.5512 24.528 76.341 22.8231 75.5101C24.4122 74.7326 29.6116 73.6095 38.4242 73.4809L38.3884 71.0323C33.6477 71.1015 29.2409 71.4774 25.9802 72.0912C24.5195 72.3662 23.3517 72.6695 22.4487 73.0159V34.694C22.4487 31.7682 24.8292 29.3879 27.7548 29.3879H36.3263V43.2654H24.4897V45.7143H36.3264V62.0409H43.6733V59.3126L46.363 56.6229H49.6317C48.4239 57.3396 46.8784 57.5435 45.6828 57.5743L45.7456 60.0224C48.5284 59.951 50.7591 59.1537 52.1964 57.7165C55.4888 54.4243 54.3142 48.2192 54.2627 47.9565L54.1039 47.1496L53.297 46.991C53.103 46.9531 48.5077 46.0785 45.137 47.8831C44.5902 48.1751 44.1008 48.5298 43.6731 48.9331V45.7143H57.5506V73.0143H57.5511ZM45.2884 70.5006H42.5364C42.157 69.4429 42.0433 68.2646 42.0392 67.2515L45.2884 70.5006ZM43.7711 65.5201C44.3411 65.5224 44.9633 65.5596 45.5869 65.6592V67.3359L43.7711 65.5201ZM47.7375 72.9495L48.6983 73.9103C47.3058 73.8967 45.6923 73.6717 44.4697 72.9495H47.7375ZM48.0359 69.7848V66.4976C48.3237 66.6732 48.592 66.8774 48.8314 67.1167C50.1195 68.4049 50.4219 70.514 50.4284 72.1771L48.0359 69.7848ZM43.6744 55.8482C43.6848 54.2359 43.975 52.0849 45.2692 50.7907C45.4986 50.5613 45.7662 50.3556 46.0645 50.1748V53.4584L43.6744 55.8482ZM48.5134 51.0095V49.3373C49.1375 49.2368 49.7577 49.1992 50.3269 49.1962L48.5134 51.0095ZM52.0609 50.9251C52.0572 51.9384 51.9436 53.1165 51.5641 54.1739H48.8119L52.0609 50.9251ZM57.5511 43.2654H43.6734V29.3879H52.2448C55.1706 29.3879 57.5509 31.7684 57.5509 34.694V43.2654H57.5511Z" fill="#B3DB11"/>
</svg>
