<svg width="14" height="12" viewBox="0 0 14 12" fill="none" xmlns="http://www.w3.org/2000/svg">
<g clip-path="url(#clip0_5602_706)">
<path d="M12.338 0.68399H1.662C0.745 0.68399 0 1.39899 0 2.27899V9.72099C0 10.601 0.745 11.317 1.662 11.317H12.338C13.255 11.317 14 10.601 14 9.72099V2.27999C14 1.39999 13.255 0.68399 12.338 0.68399ZM12.338 9.90799H1.662C1.527 9.90799 1.409 9.82099 1.409 9.72099V3.26299L6.238 7.33999C6.33699 7.42369 6.46237 7.46973 6.592 7.46999H7.408C7.53763 7.46973 7.66301 7.42369 7.762 7.33999L12.592 3.26299V9.72099C12.592 9.82099 12.473 9.90799 12.338 9.90799ZM7 6.07099L2.303 2.09199H11.697L7 6.07099Z" fill="#B3DB11"/>
</g>
<defs>
<clipPath id="clip0_5602_706">
<rect width="14" height="12" fill="white"/>
</clipPath>
</defs>
</svg>
