<svg width="104" height="66" viewBox="0 0 104 66" fill="none" xmlns="http://www.w3.org/2000/svg">
<path d="M1.97012 33.294L10.2586 36.5639C11.3539 36.9958 12.548 36.7677 13.4022 36.0519L19.9659 40.1913L21.0917 40.9827C19.6637 43.2427 20.0295 46.331 22.2007 48.1719C23.3937 49.1835 24.9096 49.6151 26.3934 49.4534C26.4806 51.0132 27.1899 52.4024 28.3442 53.3808C29.4787 54.3428 30.9597 54.8354 32.5367 54.6634C32.6245 56.2226 33.3334 57.6113 34.4877 58.59C35.6327 59.5609 37.1166 60.0431 38.6829 59.8723C38.7647 61.3411 39.4235 62.7749 40.6312 63.7991C42.9643 65.7777 46.4741 65.4907 48.4523 63.1578L49.7694 61.6119L51.9889 63.2499C55.8264 66.0824 61.2502 63.7619 61.7505 59.0537C65.707 60.4914 69.908 57.7186 69.9689 53.4603C73.6983 54.1614 77.0076 51.4528 77.2154 47.8599C82.0528 49.152 86.4283 44.2636 84.2923 39.4837L90.2235 35.6741C91.0728 36.6801 92.4841 37.0602 93.7424 36.5637L102.031 33.294C103.626 32.6648 104.413 30.8547 103.783 29.259L99.9948 19.6565C99.686 18.8736 98.801 18.4897 98.0186 18.7985C97.2358 19.1072 96.8516 19.992 97.1604 20.7747L100.948 30.377C100.961 30.4097 100.945 30.4468 100.913 30.4599L92.6242 33.7295C92.5913 33.7423 92.5546 33.7265 92.5415 33.6938C92.2513 32.9581 82.948 9.37531 82.1253 7.29004C82.1223 7.28272 82.1156 7.26566 82.1261 7.24149C82.1367 7.21732 82.154 7.21062 82.1611 7.20757L90.4498 3.93767C90.4569 3.93462 90.4737 3.92792 90.4985 3.93848C90.5225 3.94904 90.5292 3.96611 90.5322 3.97342L94.5482 14.1528C94.8572 14.9356 95.742 15.3196 96.5244 15.0108C97.3073 14.7021 97.6914 13.8172 97.3826 13.0346L93.3666 2.85542C92.7376 1.26008 90.9273 0.473989 89.332 1.10347L81.0431 4.37337C79.5621 4.95756 78.7803 6.54681 79.1776 8.05338L74.7342 9.69341C73.3516 10.2039 71.8505 10.3519 70.3937 10.121L65.9022 9.40903C65.0714 9.27761 64.2906 9.84453 64.1591 10.6751C64.0275 11.5061 64.5942 12.2867 65.4252 12.4183L69.9167 13.1303C71.8876 13.4425 73.9181 13.2424 75.7895 12.5516L80.273 10.8965C80.7597 12.1303 88.4397 31.5973 88.9436 32.8748L82.4062 37.0736L82.2953 36.9917C82.2949 36.9913 82.2943 36.9909 82.2939 36.9907C81.5935 36.4738 70.2265 28.0851 69.6931 27.6913C69.3665 27.4502 68.9606 27.3419 68.4938 27.4211C62.1827 28.4942 56.5284 26.2501 52.3686 21.9067C51.0743 20.5553 48.9626 20.4828 47.5604 21.7417C43.5249 25.3661 37.8856 28.9003 33.9399 25.1504C33.5479 24.778 33.545 24.0903 34.1404 23.706C39.1665 20.4728 44.3732 15.9332 48.5632 11.6944C49.6061 10.6392 51.106 10.1486 52.578 10.382L58.3608 11.2987C59.1934 11.4305 59.9721 10.8634 60.1038 10.0326C60.2354 9.20164 59.6687 8.42104 58.8377 8.28941L53.0549 7.37271C50.6166 6.98637 48.1277 7.8013 46.3965 9.55264C45.9119 10.0428 45.3386 10.6119 44.6923 11.2361C42.7415 10.5445 40.7082 10.1313 38.64 10.0152C32.5861 9.67513 32.061 9.61094 30.6862 9.6993C29.6073 9.76816 28.5096 9.58474 27.5112 9.16711L24.8263 8.04363C25.2139 6.54579 24.4333 4.95471 22.9582 4.37297L14.6697 1.10347C13.0737 0.473786 11.2639 1.25988 10.6346 2.85542L0.218173 29.259C-0.412529 30.858 0.370516 32.6631 1.97012 33.294ZM27.7003 45.5573C26.8076 46.6103 25.2246 46.7409 24.1712 45.848C23.1109 44.9489 22.9907 43.3686 23.8785 42.3215L27.6467 37.8987C28.5183 36.8703 30.1055 36.7009 31.1758 37.608C32.2312 38.5028 32.3616 40.0815 31.4662 41.1371C31.4658 41.1375 31.4656 41.1379 31.4652 41.1383L27.7003 45.5573ZM33.8436 50.7666C32.9489 51.8219 31.3708 51.9523 30.3147 51.0571C29.2544 50.1581 29.1342 48.5778 30.022 47.5306L33.7902 43.1078C34.726 42.0036 36.4605 41.9071 37.5047 42.9914C37.5116 42.9985 37.5175 43.0065 37.5244 43.0138C38.3845 43.9284 38.4405 45.3666 37.6098 46.3464L33.8436 50.7666ZM39.9871 55.9756C39.0891 57.0348 37.5094 57.1573 36.4582 56.266C35.3979 55.3672 35.2775 53.7869 36.1653 52.7398L39.9337 48.3167C40.8289 47.2613 42.4177 47.1394 43.4628 48.0263C44.5158 48.9194 44.646 50.5024 43.7533 51.5554C43.7528 51.5558 43.7526 51.5562 43.7522 51.5566L39.9871 55.9756ZM49.9173 56.7377C49.911 56.7454 49.9055 56.7539 49.899 56.7614C49.2912 57.4748 47.6165 59.4405 46.1306 61.1845C45.2379 62.2377 43.6549 62.3679 42.6017 61.4752C41.5485 60.5822 41.4183 58.9993 42.3088 57.9489L46.0772 53.5259C46.975 52.4668 48.5561 52.3447 49.6061 53.2354C50.6392 54.1109 50.7974 55.6733 49.9173 56.7377ZM23.7315 10.889L26.3349 11.9784C27.7637 12.5762 29.3359 12.8396 30.881 12.7403C32.0462 12.6653 32.4352 12.7185 38.4686 13.0576C39.7074 13.1272 40.9323 13.319 42.1285 13.6302C39.1476 16.322 35.8001 19.0201 32.4471 21.1732C30.2975 22.5532 29.979 25.5903 31.841 27.36C34.386 29.7782 40.0773 32.5581 49.5961 24.0092C49.7668 23.8561 50.0178 23.8581 50.1675 24.0147C54.7785 28.8275 61.3142 31.5159 68.3722 30.524C69.1719 31.0861 67.6234 29.9514 80.4841 39.4428C81.8604 40.4585 82.2456 42.456 81.168 43.8346C80.1444 45.1441 78.295 45.3978 76.9586 44.4113C75.1533 43.0788 76.4862 44.093 70.1395 39.2027C69.4725 38.689 68.5164 38.8131 68.0027 39.4796C67.4894 40.146 67.6133 41.1026 68.2795 41.6163L73.5451 45.6735C74.4523 46.8687 74.3442 48.5958 73.2703 49.6671C72.2145 50.7207 70.4765 50.8202 69.2275 49.8989C68.0199 49.0078 69.0232 49.7713 63.4848 45.5073C62.8181 44.9938 61.8614 45.1185 61.3483 45.7852C60.835 46.4518 60.9593 47.4084 61.626 47.9217L66.295 51.5164C67.1768 52.6569 67.1335 54.2973 66.1707 55.3889C65.1348 56.5634 63.2993 56.7269 61.9916 55.7617C59.8903 54.211 60.9449 55.0117 56.8983 51.8797C56.2328 51.3648 55.2761 51.4867 54.761 52.1521C54.2461 52.8176 54.3679 53.7743 55.0334 54.2892L58.2702 56.7943C59.0065 57.9662 58.8623 59.501 57.894 60.5138C56.8371 61.6194 55.0762 61.7419 53.7978 60.7983L51.7499 59.2871L52.2203 58.7348C53.1583 57.629 53.6426 56.1968 53.5187 54.6898C53.3927 53.1633 52.6674 51.8369 51.5764 50.9114C50.4415 49.9492 48.9593 49.4563 47.3827 49.6273C47.2998 48.1555 46.6248 46.7135 45.4329 45.7023C44.3023 44.7438 42.867 44.2831 41.3877 44.4039C41.3383 44.408 41.2889 44.4127 41.24 44.4182C41.2371 44.3694 41.2355 44.3207 41.2315 44.2717C41.1346 43.0938 40.6755 42.0028 39.9209 41.1227C39.9162 41.1172 39.912 41.1117 39.9073 41.1062C38.7068 39.7175 36.9197 39.0159 35.0983 39.2117C35.0126 37.6819 34.3191 36.2792 33.1459 35.2843C30.811 33.3048 27.3016 33.5937 25.3246 35.9255L23.0287 38.6204L21.6866 37.6771C21.6659 37.6624 21.6448 37.6482 21.6232 37.6348L14.862 33.3706C19.9737 20.4139 18.059 25.2672 23.7315 10.889ZM3.05237 30.3774L13.4686 3.97382C13.4786 3.94864 13.5025 3.9334 13.5279 3.9334C13.5356 3.9334 13.5436 3.93483 13.5513 3.93787L21.8398 7.20777C21.8725 7.22057 21.8885 7.25774 21.8757 7.29024C21.3746 8.56058 11.7871 32.863 11.4593 33.694C11.4459 33.7271 11.4101 33.7427 11.3768 33.7297L3.08832 30.4599C3.05542 30.4468 3.03917 30.4101 3.05237 30.3774Z" fill="#B3DB11"/>
</svg>
