<svg width="80" height="80" viewBox="0 0 80 80" fill="none" xmlns="http://www.w3.org/2000/svg">
<path d="M58.3799 6.29655C58.1188 5.70437 57.4272 5.43609 56.8349 5.69671C56.2427 5.95765 55.9741 6.64935 56.2351 7.24169C57.331 9.72837 57.4746 13.4285 54.5982 16.3487L40.0047 30.9168L26.8032 17.7384L30.2942 17.75H30.2979C30.6901 17.75 31.0564 17.5539 31.2737 17.2272L33.6991 13.5808L38.9683 23.5611C39.4206 24.4175 40.6525 24.3843 41.0636 23.5157L43.7952 17.75H48.3724C49.0197 17.75 49.5442 17.2253 49.5442 16.5781C49.5442 15.9309 49.0197 15.4063 48.3724 15.4063H43.0537C42.6009 15.4063 42.1886 15.6672 41.9948 16.0764L39.9478 20.3967L34.8515 10.7434C34.4376 9.95962 33.3323 9.89993 32.8393 10.6415L29.6714 15.4042L24.5965 15.3875C20.764 10.1188 24.4376 2.34567 31.2836 2.34567C34.6566 2.34567 37.6535 4.36736 38.9183 7.49622C39.312 8.47042 40.6969 8.47136 41.0911 7.49622C43.1663 2.36348 49.3842 0.937095 53.4457 3.80346C53.9746 4.17705 54.7059 4.05049 55.0788 3.52174C55.452 2.993 55.3259 2.26176 54.797 1.88864C50.2097 -1.34897 43.421 -0.408042 40.0045 4.58829C38.0613 1.7463 34.8346 0.00179568 31.2834 0.00179568C21.892 0.00179568 17.1922 11.3449 23.7551 18.0075L39.1766 33.4019C39.6339 33.8585 40.375 33.8586 40.8325 33.4019L56.261 18.0004C59.315 14.8999 60.1466 10.3059 58.3799 6.29655Z" fill="#B3DB11"/>
<path d="M35.6607 70.3761H34.1221L34.9999 62.4648C37.7604 51.6025 31.1139 45.5966 26.6933 42.9065C24.089 38.4761 25.1443 40.3119 22.8153 36.301L19.0214 16.12C18.3638 12.6218 14.3693 10.8757 11.3523 12.7791C11.2643 12.3226 11.2678 12.3299 11.2534 12.2726C10.4447 9.07983 7.60893 8.07094 5.31756 8.48327C2.60838 8.97139 0.595283 11.3895 0.99184 14.2727L2.67744 25.7621C2.77166 26.4024 3.36665 26.8457 4.00711 26.7514C4.64741 26.6575 5.09037 26.0622 4.99647 25.4219L3.31431 13.9557C3.12259 12.1046 4.38882 11.0323 5.73302 10.79C6.92957 10.5742 8.49095 10.9775 8.97329 12.817C9.40625 15.0807 12.1903 29.5839 12.4848 31.1184C11.3806 31.9781 10.9845 33.5309 11.595 34.8295C18.2222 49.0641 16.1382 45.1615 21.1131 53.0087C21.4611 53.5581 22.1861 53.7164 22.7301 53.3717C23.277 53.0254 23.4395 52.3014 23.0931 51.7547L19.5886 46.2219C19.088 45.4313 19.3311 45.9073 13.7177 33.8363C13.5601 33.5009 13.6824 33.0964 13.9963 32.9153C14.566 32.5867 16.3447 32.5832 17.8607 33.7457C19.5458 35.038 20.1203 36.3782 21.9906 39.5484C24.9702 44.5034 24.7804 44.496 25.2385 44.767C27.2244 45.9412 29.9492 47.9877 31.6525 51.0687C34.5674 56.3418 32.7453 61.5305 32.6793 62.1247L31.7639 70.3761H15.0782C15.0901 69.7496 18.2427 59.3557 11.6904 48.2494C6.70144 39.7931 6.63363 36.7443 6.06661 32.7142L5.75068 30.5604C5.65662 29.9201 5.06194 29.4773 4.42101 29.5711C3.78071 29.665 3.33774 30.2603 3.43165 30.9006C4.28101 36.8024 4.13008 40.0467 9.67187 49.4403C15.7912 59.8125 12.7135 69.5858 12.6937 70.3761H10.9222C10.2748 70.3761 9.75031 70.9008 9.75031 71.548V78.828C9.75031 79.4752 10.2748 79.9999 10.9222 79.9999H35.6606C36.3079 79.9999 36.8324 79.4752 36.8324 78.828V71.548C36.8326 70.9008 36.3079 70.3761 35.6607 70.3761ZM14.7257 30.3823C10.8881 10.3637 12.1114 16.7446 11.8647 15.4572C13.2645 13.5348 16.2822 14.2346 16.7182 16.5532L19.6561 32.1823C18.1302 30.9084 16.2776 30.3251 14.7257 30.3823ZM34.4889 77.6563H12.094V72.72H34.4887V77.6563H34.4889Z" fill="#B3DB11"/>
<path d="M74.6913 8.48338C71.7996 7.96261 69.2279 9.74602 68.7404 12.3404L68.6565 12.7793C65.6348 10.8727 61.644 12.6275 60.9874 16.1201L57.1936 36.3011C55.0902 39.9232 57.0204 36.6145 53.3157 42.9065C50.294 44.7449 46.5014 47.9614 45.0055 53.0396C44.7842 53.7902 45.3484 54.5429 46.13 54.5429C46.6362 54.5429 47.1032 54.2121 47.2536 53.7018C48.5774 49.2076 52.0716 46.3624 54.7698 44.7669C55.2261 44.4971 55.0384 44.5027 58.0178 39.5484C59.8774 36.3961 60.4626 35.0378 62.1479 33.7457C64.123 32.2312 66.9128 32.5121 66.2889 33.84C59.8309 47.7064 61.7718 44.1285 56.9154 51.7545C56.569 52.3012 56.7315 53.0252 57.2784 53.3715C57.8242 53.7171 58.5484 53.5563 58.8954 53.0085C63.7716 45.3616 61.9305 48.7606 68.4117 34.8332C69.0239 33.531 68.6278 31.978 67.5237 31.1182C68.6903 25.0419 70.2681 16.8294 71.0352 12.8168C71.9243 9.4254 77.0586 10.4371 76.6944 13.9558C73.8304 33.479 73.9418 32.7116 73.9364 32.7599C73.4664 37.1608 72.8216 40.6165 68.3184 48.2495C64.6292 54.5029 63.335 61.8767 64.6747 69.0126L64.9306 70.3762H48.2448C47.2689 61.6179 47.3387 62.1154 47.2993 61.9613C46.9857 60.7461 46.7953 59.5522 46.7332 58.4131C46.6979 57.7669 46.1506 57.2709 45.4992 57.3069C44.853 57.3422 44.3577 57.8947 44.393 58.5408C44.4622 59.8083 44.6695 61.1281 45.0089 62.4649L45.8867 70.3762H44.3481C43.7008 70.3762 43.1763 70.9009 43.1763 71.5481V78.8281C43.1763 79.4753 43.7008 80 44.3481 80H69.0865C69.7339 80 70.2584 79.4753 70.2584 78.8281V71.5481C70.2584 70.9009 69.7339 70.3762 69.0865 70.3762H67.3151L66.9779 68.5802C65.7433 62.0021 66.9361 55.2047 70.337 49.4404C75.0611 41.4327 75.7772 37.5831 76.2644 33.0319C79.0975 13.721 79.0181 14.2685 79.0222 14.2297C79.3707 11.0322 77.1072 8.91869 74.6913 8.48338ZM65.2833 30.3821C63.7455 30.3254 61.8894 30.8991 60.3527 32.1824L63.2908 16.5531C63.7252 14.2422 66.738 13.5257 68.1443 15.4572C67.8976 16.7447 69.1207 10.3635 65.2833 30.3821ZM67.9148 77.6563H45.5201V72.7199H67.9148V77.6563Z" fill="#B3DB11"/>
</svg>
