<svg width="92" height="80" viewBox="0 0 92 80" fill="none" xmlns="http://www.w3.org/2000/svg">
<path d="M46.0004 80C45.5406 80 45.0809 79.8816 44.6708 79.6447C29.6979 70.9987 18.5056 61.9788 11.151 52.6538H1.92637C1.19202 52.6538 0.59668 52.0587 0.59668 51.3241C0.59668 50.5896 1.19202 49.9945 1.92637 49.9945H9.16341C3.68652 42.2404 0.834782 34.2831 0.64118 26.1624C0.50307 20.3671 2.34956 14.6375 5.84061 10.0289C9.28876 5.47671 14.1902 2.19558 19.6421 0.789834C20.3533 0.605982 21.0783 1.03432 21.2616 1.74544C21.4451 2.45673 21.0173 3.18185 20.306 3.36517C15.4324 4.62164 11.048 7.55847 7.96049 11.6348C4.83129 15.766 3.1761 20.9027 3.29984 26.0991C3.49309 34.2139 6.55545 42.1954 12.45 49.9994C20.2482 50.117 24.6231 52.3227 28.8571 54.4578C33.3456 56.7213 37.5854 58.859 46.0002 58.859C54.415 58.859 58.6547 56.7211 63.1432 54.4578C67.3764 52.323 71.7504 50.1179 79.5457 49.9996C85.4281 42.2158 88.5081 34.1756 88.7005 26.0991C88.8498 19.8334 86.5255 13.9197 82.156 9.44716C77.8793 5.06983 72.1778 2.65937 66.1017 2.65937C66.0972 2.65937 66.0935 2.65937 66.0891 2.65937C58.4014 2.66363 51.3088 6.53656 47.1168 13.0198C46.8717 13.3986 46.4514 13.6275 46.0002 13.6275C45.549 13.6275 45.1286 13.3986 44.8836 13.0198C40.6915 6.53674 33.5992 2.66381 25.9113 2.65937C25.1767 2.65902 24.5818 2.06332 24.5823 1.32898C24.5826 0.594813 25.178 0 25.912 0H25.9127C33.8568 0.004255 41.2307 3.70238 46 9.98364C50.7693 3.7022 58.1432 0.004255 66.0875 0H66.1017C72.9005 0 79.2766 2.69448 84.0581 7.58861C88.9328 12.5781 91.5257 19.1744 91.3592 26.1626C91.1666 34.2467 88.3032 42.2539 82.8423 49.9946H90.074C90.8083 49.9946 91.4037 50.5898 91.4037 51.3243C91.4037 52.0588 90.8083 52.654 90.074 52.654H80.2063C72.6269 52.654 68.6018 54.6836 64.3406 56.8324C59.7718 59.1361 55.0475 61.5186 46.0002 61.5186C36.9528 61.5186 32.2285 59.1361 27.6597 56.8324C23.9694 54.9716 20.4565 53.2001 14.6584 52.7586C21.7866 61.1883 32.2496 69.4013 46.0011 77.3419C57.7021 70.5844 67.1404 63.5326 74.0523 56.3826C74.5626 55.8547 75.4043 55.8403 75.9325 56.3507C76.4605 56.8611 76.4748 57.7029 75.9644 58.2309C68.8805 65.5587 59.2463 72.7635 47.3295 79.6447C46.9196 79.8816 46.4599 80 46.0004 80ZM46.0172 56.1997C35.0771 56.1997 30.3569 53.0097 27.782 50.6852C21.6325 45.1337 18.1103 36.4239 17.8092 30.6894C17.7895 30.3153 17.9287 29.95 18.1923 29.6839C18.456 29.4176 18.8201 29.274 19.1939 29.2911C22.0919 29.415 25.3501 30.1101 28.5554 31.2083C28.6729 27.9927 29.2396 24.9859 30.1875 22.6072C30.3202 22.2747 30.5809 22.0097 30.9114 21.8721C31.2419 21.7345 31.6137 21.7356 31.9429 21.8758C34.1651 22.8203 36.5112 24.2519 38.7934 26.0505C40.5274 22.2423 42.8024 18.917 45.0635 16.6725C45.5821 16.158 46.4186 16.158 46.937 16.6725C49.3854 19.1028 51.5554 22.4458 53.1828 26.0698C55.4729 24.2622 57.8277 22.8236 60.0576 21.8758C60.387 21.7358 60.7588 21.7345 61.0893 21.8721C61.4196 22.0097 61.6806 22.2747 61.8132 22.6072C62.7611 24.9859 63.3276 27.9927 63.4453 31.2083C66.6507 30.1101 69.9088 29.415 72.8068 29.2911C73.1802 29.2735 73.5449 29.4176 73.8084 29.6839C74.072 29.95 74.211 30.3153 74.1915 30.6894C73.8904 36.4239 70.418 45.1895 64.2187 50.6852C61.4979 53.0971 56.9573 56.1997 46.0172 56.1997ZM56.1968 37.5438C56.2244 37.9971 56.2384 38.4434 56.2384 38.8829C56.2384 43.7237 53.9889 48.4971 49.3795 53.4038C55.2137 52.9602 59.4119 51.4413 62.4364 48.711C67.4612 44.1749 70.6242 37.1247 71.3781 32.0738C66.8741 32.6006 60.9287 34.5729 56.1968 37.5438ZM20.6223 32.074C21.3761 37.1249 24.5392 44.175 29.5642 48.7112C32.5859 51.4392 36.7792 52.9577 42.6061 53.4027C41.369 52.0982 40.3226 50.8302 39.4414 49.5714C39.0204 48.9695 39.1668 48.1407 39.7684 47.7196C40.3699 47.2987 41.1993 47.445 41.6202 48.0466C42.413 49.1796 43.3591 50.3274 44.4803 51.5147C43.9402 46.5293 42.2586 42.814 39.3801 40.2156C39.0757 39.9408 38.7589 39.6711 38.4316 39.4073C38.485 40.7581 38.7436 42.1112 39.203 43.437C39.4434 44.1309 39.0757 44.8883 38.3818 45.1287C37.688 45.3687 36.9305 45.0014 36.6901 44.3075C36.0742 42.5298 35.7619 40.7047 35.7619 38.8832C35.7619 38.4375 35.7747 37.9899 35.7997 37.5419C31.0685 34.5719 25.1253 32.6004 20.6223 32.074ZM38.5874 36.2068C39.5209 36.8595 40.3857 37.5401 41.1622 38.2411C44.6724 41.4098 46.6558 45.8806 47.1864 51.8527C51.3049 47.5514 53.4017 43.457 53.5684 39.4073C53.2411 39.6709 52.9248 39.9404 52.6204 40.2152C51.6643 41.0781 50.8289 42.0819 50.1369 43.1987C49.7503 43.8229 48.931 44.0157 48.3062 43.629C47.682 43.2421 47.4894 42.4225 47.8761 41.7984C48.6998 40.4686 49.6965 39.2719 50.8383 38.2413C51.6129 37.542 52.4752 36.863 53.406 36.212C52.6321 30.0275 49.3772 23.4433 45.9989 19.5622C42.6462 23.3963 39.353 29.8697 38.5874 36.2068ZM54.2292 28.6427C54.9593 30.6408 55.5149 32.6768 55.8548 34.6529C57.4103 33.7491 59.0839 32.925 60.8078 32.2079C60.7868 29.5441 60.4384 27.0258 59.8066 24.9276C57.9881 25.8528 56.0601 27.1354 54.2292 28.6427ZM31.193 32.208C32.9081 32.9216 34.5741 33.7414 36.1233 34.6399C36.461 32.594 37.0209 30.5626 37.7382 28.6154C35.9172 27.1199 34.0013 25.8473 32.1941 24.9277C31.5621 27.026 31.2139 29.544 31.193 32.208Z" fill="#B3DB11"/>
</svg>
