<svg width="70" height="80" viewBox="0 0 70 80" fill="none" xmlns="http://www.w3.org/2000/svg">
<path d="M20.3361 1.0004e-05C19.5997 -0.00281204 19.0005 0.591782 18.9976 1.32813V10.6693H5.60432C4.85326 10.7378 4.33283 11.312 4.3335 11.9974V16.2526C2.79036 16.809 1.66423 18.2771 1.66423 20C1.66423 21.7229 2.79036 23.1911 4.3335 23.7474V25.3334C4.3335 26.889 3.58274 27.8892 2.55746 29.4271C1.53216 30.9651 0.333496 33.0001 0.333496 36.0001V74.6666C0.333496 77.5982 2.73522 80 5.66683 80H40.3335C41.7208 80 42.9906 79.4629 43.9429 78.5885C46.1615 79.4961 48.5493 80 51.0002 80C61.2937 80 69.6668 71.6269 69.6668 61.3334C69.6668 51.0398 61.2937 42.6667 51.0002 42.6667C49.1461 42.6667 47.3586 42.9474 45.6668 43.4532V36.0001C45.6668 33.0001 44.4682 30.9651 43.4429 29.4271C42.4176 27.8892 41.6668 26.889 41.6668 25.3334V23.7474C43.2101 23.1926 44.3335 21.7248 44.3335 20C44.3335 18.274 43.2091 16.8039 41.6642 16.25V11.9974C41.6616 11.2652 41.0684 10.6722 40.3361 10.6693H27.0002V1.32813C26.9972 0.595814 26.4043 0.00293284 25.672 1.0004e-05H20.3361ZM21.6642 2.66933H24.3335V10.6693H21.6642V2.66933ZM7.00016 13.3385H19.0002V16.0052H7.00016V13.3385ZM21.6668 13.3385H24.3335V16.0052H21.6668V13.3385ZM27.0002 13.3385H38.9976V16.0052H27.0002V13.3385ZM5.67204 18.6614H40.3361C41.0978 18.6614 41.6642 19.2383 41.6642 20C41.6642 20.7617 41.0978 21.3281 40.3361 21.3281H5.67204C4.91031 21.3281 4.3335 20.7617 4.3335 20C4.3335 19.2383 4.91031 18.6614 5.67204 18.6614ZM7.00016 23.9975H18.9976V38.9479C16.7001 39.6986 14.4038 40 12.3361 40C9.46195 40 6.1457 39.4271 3.00016 37.8463V36.0001C3.00016 33.6668 3.8015 32.3684 4.7762 30.9063C5.75092 29.4442 7.00016 27.7779 7.00016 25.3334V23.9975ZM21.6642 23.9975H24.3335V36.5444C23.3512 36.9798 22.5276 37.3953 21.6642 37.849V23.9975ZM27.0002 23.9975H39.0002V25.3334C39.0002 27.7779 40.2494 29.4442 41.2241 30.9063C42.1988 32.3684 43.0002 33.6668 43.0002 36.0001V36.5444C39.7891 35.1687 36.5238 34.6666 33.6642 34.6666C31.596 34.6666 29.3167 34.9293 27.0002 35.5912V23.9975ZM33.6642 37.3333C36.539 37.3333 39.854 37.9054 43.0002 39.487V44.4922C36.7042 47.4953 32.3335 53.9051 32.3335 61.3334C32.3083 63.1364 35.0257 63.1364 35.0002 61.3334C35.0002 52.481 42.1478 45.3334 51.0002 45.3334C59.8525 45.3334 67.0002 52.481 67.0002 61.3334C67.0002 70.1857 59.8525 77.3333 51.0002 77.3333C46.3999 77.3333 42.0253 75.3553 38.9871 71.901C37.8172 70.5131 35.7581 72.3233 36.9845 73.6614C38.2099 75.0547 39.6319 76.2273 41.1772 77.1849C40.9121 77.2726 40.6335 77.3336 40.3335 77.3336H5.66683C4.16642 77.3336 3.00016 76.1673 3.00016 74.6669V40.7919C6.21016 42.1666 9.47742 42.6695 12.3361 42.6695C15.787 42.6695 19.8209 41.9572 23.6434 39.8336C26.9872 37.9759 30.5812 37.3333 33.6642 37.3333ZM22.0549 44.3881L15.3882 51.0547C14.8681 51.5779 14.8714 52.4239 15.3962 52.9428L22.0629 59.6094C22.583 60.1264 23.423 60.1264 23.9431 59.6094L30.6097 52.9428C31.1255 52.4269 31.0748 51.5276 30.6097 51.0625L23.9431 44.3958C23.6746 44.1272 23.3346 43.9952 22.9951 43.9947C22.6556 43.9944 22.3169 44.126 22.0549 44.3881ZM22.9949 47.2213L27.7762 52.0027L23.0028 56.7761L18.2215 51.9948L22.9949 47.2213ZM50.9949 48.0026C43.6469 48.0026 37.6694 53.9801 37.6694 61.3281C37.6695 68.6761 43.6469 74.6666 50.9949 74.6666C58.3429 74.6666 64.3335 68.6761 64.3335 61.3281C64.3335 53.9801 58.3429 48.0026 50.9949 48.0026ZM49.6668 50.7605V59.0234L42.5054 54.888C44.1962 52.6592 46.7412 51.122 49.6668 50.7605ZM52.3361 50.7605C55.2581 51.1243 57.8011 52.6619 59.4923 54.888L52.3361 59.0234V50.7605ZM41.1642 57.1927L48.3387 61.3334L41.1668 65.474C40.633 64.2008 40.3361 62.799 40.3361 61.3281C40.3361 59.8593 40.6318 58.4635 41.1642 57.1927ZM60.8361 57.1927C61.3694 58.4635 61.6642 59.8593 61.6642 61.3281C61.6642 62.799 61.3683 64.2008 60.8335 65.474L53.6642 61.3334L60.8361 57.1927ZM12.7215 59.052L6.05486 65.7188C5.52914 66.2404 5.52914 67.0904 6.05486 67.612L12.7215 74.2812C13.2447 74.8013 14.0907 74.7979 14.6095 74.2712L21.2762 67.6044C21.818 67.0626 21.7412 66.1894 21.2762 65.7243L14.6095 59.0599C14.4009 58.8513 14.0881 58.6905 13.7476 58.6613C13.407 58.631 13.0386 58.7351 12.7215 59.052ZM13.6616 61.8855L18.4429 66.6666L13.6616 71.4479L8.88038 66.6666L13.6616 61.8855ZM49.6668 63.638V71.9062C46.74 71.5439 44.1936 70.0062 42.5028 67.7734L49.6668 63.638ZM52.3361 63.6407L59.4949 67.7734C57.8037 70.0037 55.2594 71.5416 52.3361 71.9064V63.6407ZM34.4897 65.336C33.6716 65.3612 32.8978 66.1539 33.2423 67.086C33.3995 67.5713 33.5747 68.0478 33.771 68.5184C34.4331 70.2114 36.9686 69.1543 36.2319 67.4923C36.0637 67.0887 35.9135 66.6789 35.7788 66.2631C35.4868 65.5845 34.9806 65.3219 34.4897 65.336Z" fill="#B3DB11"/>
</svg>
