<svg width="129" height="42" viewBox="0 0 129 42" fill="none" xmlns="http://www.w3.org/2000/svg">
<mask id="mask0_5602_720" style="mask-type:luminance" maskUnits="userSpaceOnUse" x="49" y="24" width="80" height="15">
<path d="M60.4798 32.1407C59.4813 33.0372 58.0316 33.4854 56.1304 33.4854H52.766L52.171 37.2833C52.0066 38.3513 51.4047 38.8849 50.3655 38.8849C49.8595 38.8849 49.4903 38.7203 49.2577 38.3922C49.0252 38.0639 48.9499 37.6051 49.0323 37.0165L50.8172 25.8068C50.9811 24.7531 51.5969 24.2258 52.6635 24.2258H56.9103C58.5925 24.2258 59.8577 24.5852 60.7055 25.3037C61.5534 26.0225 61.9778 27.0319 61.9778 28.3318C61.9775 29.9748 61.4784 31.2444 60.4798 32.1407ZM56.5202 26.7104H53.8532L53.1762 31.0219H56.2536C58.0316 31.0219 58.9206 30.2144 58.9206 28.5991C58.9206 27.3399 58.1203 26.7104 56.5202 26.7104ZM74.1982 26.3203C73.9314 26.5805 73.5722 26.7104 73.1211 26.7104H67.3357L66.8023 30.0979H71.9109C72.7722 30.0979 73.2032 30.4334 73.2032 31.104C73.2032 31.583 73.0698 31.9525 72.8032 32.2124C72.5363 32.4726 72.1843 32.6026 71.7467 32.6026H66.4124L65.838 36.2162H71.3774C72.2527 36.2162 72.6904 36.5516 72.6904 37.2223C72.6904 37.6877 72.5569 38.0504 72.2903 38.3103C72.0235 38.5705 71.6644 38.7005 71.2132 38.7005H64.2171C63.0132 38.7005 62.5003 38.1051 62.6782 36.9143L64.4425 25.7658C64.5932 24.7393 65.1879 24.2261 66.2274 24.2261H73.2851C74.1603 24.2261 74.598 24.5616 74.598 25.232C74.5982 25.6974 74.4648 26.0604 74.1982 26.3203ZM88.8803 34.8303C88.2513 36.1101 87.3587 37.1127 86.2031 37.838C85.0473 38.5634 83.683 38.9261 82.1101 38.9261C80.7834 38.9261 79.6243 38.6728 78.6328 38.1664C77.6411 37.66 76.8718 36.9278 76.3247 35.9697C75.7775 35.0116 75.5043 33.8549 75.5043 32.4998C75.5043 30.8436 75.8222 29.3759 76.4583 28.096C77.0942 26.8162 77.9865 25.8137 79.1355 25.0883C80.2843 24.3629 81.6452 24 83.2182 24C84.5583 24 85.7243 24.2533 86.716 24.7597C87.7077 25.2661 88.4737 25.9983 89.0137 26.9564C89.5538 27.9145 89.8242 29.064 89.8242 30.4054C89.824 32.0759 89.5096 33.5505 88.8803 34.8303ZM85.6183 27.6342C85.0168 27.0184 84.1959 26.7102 83.1564 26.7102C82.2399 26.7102 81.4602 26.9533 80.8175 27.4391C80.1747 27.9251 79.6825 28.5991 79.3404 29.4613C78.9985 30.3235 78.8275 31.3228 78.8275 32.4586C78.8275 33.7318 79.1251 34.6759 79.7198 35.2919C80.3148 35.9082 81.1321 36.2159 82.1716 36.2159C83.0878 36.2159 83.8708 35.9697 84.5204 35.4768C85.1703 34.9842 85.6659 34.3069 86.0077 33.4442C86.3495 32.582 86.5205 31.5896 86.5205 30.4672C86.5211 29.1945 86.2199 28.2504 85.6183 27.6342ZM102.856 32.1407C101.858 33.0372 100.408 33.4854 98.5064 33.4854H95.1417L94.5468 37.2833C94.3823 38.3513 93.7805 38.8849 92.7413 38.8849C92.2353 38.8849 91.866 38.7203 91.6335 38.3922C91.4009 38.0639 91.3257 37.6051 91.4081 37.0165L93.1929 25.8068C93.3569 24.7531 93.9727 24.2258 95.0393 24.2258H99.2861C100.968 24.2258 102.233 24.5852 103.081 25.3037C103.929 26.0225 104.354 27.0319 104.354 28.3318C104.354 29.9748 103.854 31.2444 102.856 32.1407ZM98.8963 26.7104H96.229L95.5519 31.0219H98.6294C100.407 31.0219 101.296 30.2144 101.296 28.5991C101.296 27.3399 100.496 26.7104 98.8963 26.7104ZM114.615 38.2796C114.328 38.5601 113.938 38.7005 113.445 38.7005H106.532C105.971 38.7005 105.56 38.5466 105.301 38.2386C105.041 37.9306 104.952 37.5028 105.034 36.9553L106.86 25.5196C107.01 24.5341 107.585 24.0412 108.583 24.0412C109.117 24.0412 109.51 24.1953 109.763 24.5033C110.016 24.8113 110.095 25.2391 109.999 25.7864L108.378 36.0107H113.609C114.567 36.0107 115.046 36.3736 115.046 37.0989C115.046 37.6053 114.902 37.9988 114.615 38.2796ZM128.333 26.3203C128.066 26.5805 127.707 26.7104 127.256 26.7104H121.47L120.937 30.0979H126.045C126.907 30.0979 127.338 30.4334 127.338 31.104C127.338 31.583 127.204 31.9525 126.938 32.2124C126.671 32.4726 126.319 32.6026 125.881 32.6026H120.547L119.972 36.2162H125.512C126.387 36.2162 126.825 36.5516 126.825 37.2223C126.825 37.6877 126.691 38.0504 126.425 38.3103C126.158 38.5705 125.799 38.7005 125.348 38.7005H118.352C117.148 38.7005 116.635 38.1051 116.813 36.9143L118.577 25.7658C118.728 24.7393 119.323 24.2261 120.362 24.2261H127.42C128.295 24.2261 128.733 24.5616 128.733 25.232C128.733 25.6974 128.599 26.0604 128.333 26.3203Z" fill="white"/>
</mask>
<g mask="url(#mask0_5602_720)">
<rect x="48.5239" y="4.23486" width="80.4631" height="35.505" fill="white"/>
</g>
<mask id="mask1_5602_720" style="mask-type:luminance" maskUnits="userSpaceOnUse" x="49" y="4" width="80" height="15">
<path d="M61.8336 9.98473C61.3138 10.6076 60.6233 11.0491 59.7615 11.309C60.4454 11.5555 60.9789 11.9456 61.3616 12.4792C61.7444 13.0131 61.936 13.6426 61.936 14.3679C61.936 15.7777 61.4572 16.8522 60.4998 17.5913C59.5422 18.3307 58.2361 18.7 56.5814 18.7H51.2473C50.6864 18.7 50.2729 18.5425 50.0063 18.2277C49.7395 17.9131 49.6469 17.4751 49.7293 16.9138L51.4936 5.76533C51.644 4.73884 52.239 4.22559 53.2785 4.22559H57.9558C59.0636 4.22559 59.9595 4.37641 60.6434 4.67729C61.3273 4.97868 61.8267 5.38917 62.1411 5.90928C62.4557 6.4294 62.613 7.01767 62.613 7.67487C62.613 8.59199 62.353 9.36186 61.8336 9.98473ZM52.868 16.339H56.3968C57.231 16.339 57.8536 16.1508 58.2638 15.7744C58.674 15.398 58.8796 14.8677 58.8796 14.1833C58.8796 13.0884 58.1683 12.5408 56.7458 12.5408H53.463L52.868 16.339ZM59.0435 6.97698C58.7017 6.71705 58.1683 6.58683 57.4434 6.58683H54.4066L53.8528 10.1798H56.9918C57.8122 10.1798 58.445 10.002 58.8893 9.64595C59.3338 9.28989 59.5562 8.77003 59.5562 8.08562C59.5564 7.60671 59.3854 7.23716 59.0435 6.97698ZM77.0501 6.32003C76.7833 6.58022 76.4242 6.71018 75.9731 6.71018H70.1874L69.6542 10.0974H74.7628C75.6241 10.0974 76.0551 10.4329 76.0551 11.1035C76.0551 11.5824 75.9217 11.952 75.6551 12.2119C75.3883 12.4721 75.0363 12.6021 74.5986 12.6021H69.2643L68.6897 16.2154H74.2291C75.1044 16.2154 75.542 16.5509 75.542 17.2215C75.542 17.687 75.4086 18.0496 75.142 18.3096C74.8751 18.5698 74.516 18.6997 74.0649 18.6997H67.069C65.8651 18.6997 65.3522 18.1043 65.5301 16.9135L67.2944 5.76508C67.4451 4.73859 68.0398 4.22534 69.0793 4.22534H76.137C77.0123 4.22534 77.4499 4.56081 77.4499 5.23148C77.4502 5.69717 77.3167 6.0601 77.0501 6.32003ZM91.0659 6.93577C90.936 7.23716 90.7034 7.44902 90.3682 7.57237C90.033 7.69572 89.6126 7.63392 89.1066 7.38747C88.6553 7.15501 88.1526 6.97342 87.5985 6.8437C87.0445 6.71374 86.5077 6.64863 85.988 6.64863C85.1534 6.64863 84.487 6.80962 83.9876 7.1311C83.4882 7.45283 83.2389 7.88062 83.2389 8.41422C83.2389 8.82471 83.3721 9.15 83.6389 9.38933C83.9055 9.62891 84.3058 9.81712 84.8392 9.95395L87.137 10.5084C88.2995 10.7823 89.1882 11.2406 89.804 11.8841C90.4193 12.5273 90.7271 13.3005 90.7271 14.2041C90.7271 15.2583 90.4396 16.1343 89.8655 16.8322C89.2909 17.5303 88.5318 18.0537 87.5881 18.4027C86.6445 18.7516 85.6256 18.9261 84.5315 18.9261C83.6968 18.9261 82.8561 18.8335 82.008 18.6491C81.1602 18.4642 80.3873 18.1804 79.69 17.7971C79.307 17.5781 79.0673 17.294 78.9717 16.9451C78.8762 16.5961 78.9031 16.2607 79.0538 15.9392C79.2043 15.6175 79.4368 15.3847 79.7515 15.241C80.0661 15.0973 80.4422 15.1347 80.8799 15.354C81.4952 15.6826 82.1519 15.9188 82.8495 16.0623C83.5469 16.206 84.2034 16.2777 84.8189 16.2777C85.6942 16.2777 86.3745 16.1203 86.8602 15.8057C87.3459 15.4908 87.5886 15.0874 87.5886 14.5945C87.5886 14.1978 87.4448 13.8692 87.1576 13.609C86.8704 13.3491 86.3918 13.1436 85.7214 12.993L83.4031 12.4388C82.3908 12.2063 81.5874 11.775 80.9925 11.1455C80.3975 10.516 80.1002 9.7014 80.1002 8.70212C80.1002 7.71683 80.3736 6.87168 80.9205 6.16641C81.4677 5.46166 82.1926 4.9245 83.0953 4.5547C83.998 4.18515 84.976 4.00025 86.0292 4.00025C86.7265 4.00025 87.4687 4.08927 88.255 4.2673C89.0413 4.44534 89.7834 4.73935 90.4811 5.1501C90.8231 5.3556 91.0382 5.62926 91.1274 5.97159C91.2163 6.31316 91.1957 6.63464 91.0659 6.93577ZM106.651 6.4327C106.377 6.71323 105.995 6.85362 105.502 6.85362H101.892L100.23 17.2833C100.052 18.351 99.4568 18.8849 98.4448 18.8849C97.9388 18.8849 97.5626 18.7206 97.3164 18.3922C97.0701 18.0636 96.9949 17.6051 97.0907 17.0163L98.691 6.85362H95.3264C94.8887 6.85362 94.5467 6.75799 94.3004 6.56648C94.0541 6.37497 93.9309 6.11478 93.9309 5.78619C93.9309 5.29354 94.0712 4.91051 94.3515 4.6366C94.6318 4.36268 95.0181 4.22585 95.5106 4.22585H105.666C106.596 4.22585 107.061 4.57505 107.061 5.27294C107.062 5.76584 106.925 6.15217 106.651 6.4327ZM128.814 11.0829C128.54 12.0138 128.236 12.8076 127.901 13.4645C127.566 14.1215 127.152 14.7652 126.66 15.3947L127.932 16.8728C128.219 17.2017 128.352 17.5196 128.332 17.8279C128.311 18.1359 128.174 18.3925 127.921 18.5977C127.668 18.8027 127.337 18.9055 126.927 18.9055C126.735 18.9055 126.53 18.878 126.311 18.8236C126.092 18.7686 125.901 18.6389 125.737 18.4334L124.752 17.2426C124.123 17.7762 123.422 18.1905 122.649 18.4846C121.876 18.7786 121.038 18.9258 120.136 18.9258C119.165 18.9258 118.323 18.775 117.612 18.4744C116.901 18.1735 116.35 17.7559 115.96 17.222C115.57 16.6882 115.376 16.0722 115.376 15.3741C115.376 14.6624 115.533 14.0192 115.848 13.4442C116.162 12.8694 116.59 12.3561 117.13 11.9044C117.67 11.4527 118.275 11.056 118.946 10.7136L118.966 10.693C118.624 10.2826 118.378 9.85146 118.228 9.39976C118.077 8.94806 118.002 8.50298 118.002 8.06502C118.002 7.24403 118.204 6.53215 118.607 5.92988C119.011 5.32762 119.561 4.85558 120.259 4.5135C120.956 4.17142 121.743 4 122.619 4C123.699 4 124.56 4.28078 125.203 4.84184C125.846 5.40316 126.168 6.1214 126.168 6.99732C126.168 7.61332 126.014 8.17463 125.706 8.68101C125.398 9.18739 124.998 9.64239 124.506 10.0463C124.013 10.4502 123.48 10.8095 122.906 11.1241L124.978 13.6494C125.265 13.2254 125.504 12.8012 125.696 12.3767C125.887 11.9525 126.079 11.4324 126.27 10.8164C126.38 10.4471 126.547 10.1696 126.773 9.98498C126.999 9.80008 127.303 9.70776 127.686 9.70776C128.124 9.70776 128.452 9.82755 128.671 10.0671C128.889 10.3065 128.937 10.645 128.814 11.0829ZM123.685 7.14102C123.685 6.45686 123.295 6.11453 122.515 6.11453C121.995 6.11453 121.585 6.27196 121.284 6.58683C120.983 6.90169 120.833 7.32592 120.833 7.85977C120.833 8.11995 120.881 8.37301 120.976 8.61946C121.072 8.86591 121.25 9.15992 121.51 9.50226C122.96 8.92746 123.685 8.1403 123.685 7.14102ZM120.444 12.3353C119.896 12.6367 119.428 12.9925 119.038 13.4032C118.648 13.8137 118.454 14.3204 118.454 14.9224C118.454 15.4015 118.634 15.7881 118.997 16.0824C119.36 16.3766 119.896 16.5236 120.608 16.5236C121.114 16.5236 121.576 16.4451 121.993 16.2876C122.41 16.1302 122.81 15.901 123.192 15.5999L120.444 12.3353Z" fill="white"/>
</mask>
<g mask="url(#mask1_5602_720)">
<rect x="49.207" y="3.57745" width="80.4631" height="35.505" fill="white"/>
</g>
<path d="M20.76 40.52C31.6732 40.52 40.52 31.6732 40.52 20.76C40.52 9.84686 31.6732 1 20.76 1C9.84686 1 1 9.84686 1 20.76C1 31.6732 9.84686 40.52 20.76 40.52Z" stroke="white" stroke-miterlimit="100"/>
<path d="M20.7864 38.7343L8.23632 28.6942C9.15474 22.5492 14.4746 17.8322 20.9019 17.8322C26.4319 17.8322 31.1433 21.3242 32.9354 26.2148L20.7864 38.7343Z" stroke="white"/>
<path d="M20.9028 22.3394C25.5737 22.3394 29.3602 18.5529 29.3602 13.882C29.3602 9.21104 25.5737 5.4245 20.9028 5.4245C16.2319 5.4245 12.4453 9.21104 12.4453 13.882C12.4453 18.5529 16.2319 22.3394 20.9028 22.3394Z" fill="white"/>
<path d="M15.8799 26.849C10.0667 19.2292 2.4686 19.0197 2.4686 19.0197C2.4686 19.0197 1.6931 26.5353 6.89848 33.2504C11.7915 39.5619 20.8209 39.3354 20.8209 39.3354C20.8209 39.3354 21.3098 33.9664 15.8799 26.849Z" fill="white"/>
<path d="M39.2016 19.0197C39.2016 19.0197 31.6035 19.2292 25.7903 26.849C20.3604 33.9664 20.8493 39.3354 20.8493 39.3354C20.8493 39.3354 29.8787 39.5619 34.7717 33.2504C39.9771 26.5353 39.2016 19.0197 39.2016 19.0197Z" fill="white"/>
</svg>
