<svg width="28" height="28" viewBox="0 0 28 28" fill="none" xmlns="http://www.w3.org/2000/svg">
<g clip-path="url(#clip0_5602_897)">
<path d="M21.5692 18.2387L24.9868 20.3652C25.161 20.4632 25.2045 20.6452 25.1283 20.7805L23.6583 23.3518C22.837 24.7829 21.0543 25.6805 19.5828 25.0241C10.8826 21.1523 6.57366 16.8978 2.97411 8.41694C2.34566 6.9345 3.21522 5.16272 4.64789 4.34139L7.21922 2.87139C7.30633 2.82161 7.52566 2.76716 7.61277 2.98028L9.77811 6.46472C9.83255 6.56272 9.79366 6.73694 9.663 6.81939L8.90855 7.30161C8.41222 7.61615 8.04159 8.09444 7.8609 8.65357C7.6802 9.2127 7.70084 9.81743 7.91922 10.3629C8.91944 12.8301 11.8781 15.9412 12.0041 16.0718C12.1674 16.2305 15.1977 19.1083 17.6414 20.0852C18.7583 20.5363 20.037 20.1132 20.6934 19.0912L21.1757 18.3305C21.2348 18.2434 21.409 18.1392 21.5692 18.2372V18.2387ZM20.5348 27.3978C21.5612 27.3938 22.5687 27.1205 23.4564 26.6051C24.3441 26.0897 25.081 25.3504 25.5934 24.4609L27.065 21.8912C27.3966 21.31 27.4844 20.6211 27.3092 19.9753C27.134 19.3295 26.71 18.7795 26.1301 18.4456L22.711 16.3192C22.1467 15.9858 21.4751 15.8845 20.8376 16.0365C20.2001 16.1886 19.6465 16.5821 19.2934 17.1343L18.8112 17.8934C18.735 18.0085 18.5934 18.0645 18.4783 18.0147C16.439 17.1996 13.6172 14.5194 13.5892 14.4976C13.5892 14.4976 10.8328 11.5934 9.99589 9.52605C9.94766 9.40628 10.0021 9.26316 10.1172 9.18694L10.8717 8.70472C11.4191 8.35624 11.8111 7.80997 11.9658 7.17971C12.1205 6.54945 12.0262 5.88379 11.7023 5.32139L9.537 1.83228C9.21966 1.28472 7.88655 -0.000168085 6.10855 0.930054L3.53877 2.40005C1.21322 3.73472 0.0761085 6.53472 0.836775 9.05628C2.089 13.2174 4.44566 16.9476 7.84144 20.1521C11.0459 23.5432 14.7761 25.8998 18.9388 27.1583C19.463 27.3216 19.9997 27.3978 20.5348 27.3978ZM25.4083 11.9932C26.0259 11.9932 26.5237 11.4954 26.5237 10.8778C26.5212 8.38465 25.53 5.99423 23.7675 4.23085C22.005 2.46746 19.6151 1.47509 17.1219 1.47139C16.9754 1.47118 16.8302 1.49989 16.6948 1.55587C16.5594 1.61185 16.4364 1.694 16.3328 1.7976C16.2292 1.90121 16.147 2.02425 16.091 2.15966C16.0351 2.29507 16.0063 2.4402 16.0066 2.58672C16.0066 3.20428 16.5043 3.70205 17.1219 3.70205C19.0233 3.7037 20.8463 4.45976 22.1908 5.80424C23.5353 7.14873 24.2913 8.97177 24.293 10.8732C24.293 11.4954 24.7908 11.9932 25.4083 11.9932Z" fill="#FCA600"/>
<path d="M20.6004 11.9932C21.2195 11.9932 21.7157 11.4954 21.7157 10.8778C21.7145 9.65978 21.2302 8.49194 20.369 7.63051C19.5079 6.76907 18.3402 6.28436 17.1222 6.28272C16.9755 6.28251 16.8303 6.31127 16.6948 6.36735C16.5592 6.42342 16.4361 6.50571 16.3325 6.60948C16.2289 6.71326 16.1468 6.83647 16.0909 6.97206C16.035 7.10766 16.0064 7.25295 16.0068 7.3996C16.0068 8.01716 16.5046 8.51494 17.1222 8.51494C18.4242 8.51494 19.4866 9.57583 19.4866 10.8778C19.4866 11.4954 19.9844 11.9932 20.6004 11.9932Z" fill="#FCA600"/>
</g>
<defs>
<clipPath id="clip0_5602_897">
<rect width="28" height="28" fill="white"/>
</clipPath>
</defs>
</svg>
