<svg width="18" height="18" viewBox="0 0 18 18" fill="none" xmlns="http://www.w3.org/2000/svg">
<g clip-path="url(#clip0_5602_697)">
<path d="M13.8661 11.725L16.0631 13.092C16.1751 13.155 16.2031 13.272 16.1541 13.359L15.2091 15.012C14.6811 15.932 13.5351 16.509 12.5891 16.087C6.9961 13.598 4.2261 10.863 1.9121 5.41101C1.5081 4.45801 2.0671 3.31901 2.9881 2.79101L4.6411 1.84601C4.6971 1.81401 4.8381 1.77901 4.8941 1.91601L6.2861 4.15601C6.3211 4.21901 6.2961 4.33101 6.2121 4.38401L5.7271 4.69401C5.40803 4.89622 5.16977 5.20369 5.05361 5.56313C4.93745 5.92257 4.95071 6.31133 5.0911 6.66201C5.7341 8.24801 7.6361 10.248 7.7171 10.332C7.8221 10.434 9.7701 12.284 11.3411 12.912C12.0591 13.202 12.8811 12.93 13.3031 12.273L13.6131 11.784C13.6511 11.728 13.7631 11.661 13.8661 11.724V11.725ZM13.2011 17.613C13.861 17.6104 14.5086 17.4347 15.0793 17.1034C15.65 16.7721 16.1237 16.2968 16.4531 15.725L17.3991 14.073C17.6123 13.6994 17.6687 13.2565 17.5561 12.8414C17.4435 12.4262 17.1709 12.0726 16.7981 11.858L14.6001 10.491C14.2374 10.2767 13.8056 10.2116 13.3958 10.3093C12.9859 10.407 12.6301 10.6601 12.4031 11.015L12.0931 11.503C12.0441 11.577 11.9531 11.613 11.8791 11.581C10.5681 11.057 8.7541 9.33401 8.7361 9.32001C8.7361 9.32001 6.9641 7.45301 6.4261 6.12401C6.3951 6.04701 6.4301 5.95501 6.5041 5.90601L6.9891 5.59601C7.34105 5.37199 7.593 5.02082 7.69248 4.61565C7.79195 4.21048 7.73128 3.78256 7.5231 3.42101L6.1311 1.17801C5.9271 0.826014 5.0701 1.40071e-05 3.9271 0.598014L2.2751 1.54301C0.780101 2.40101 0.0491013 4.20101 0.538101 5.82201C1.3431 8.49701 2.8581 10.895 5.0411 12.955C7.1011 15.135 9.4991 16.65 12.1751 17.459C12.5121 17.564 12.8571 17.613 13.2011 17.613ZM16.3341 7.71001C16.7311 7.71001 17.0511 7.39001 17.0511 6.99301C17.0495 5.39026 16.4123 3.85355 15.2793 2.71995C14.1462 1.58635 12.6099 0.948396 11.0071 0.946014C10.9129 0.945882 10.8196 0.964338 10.7326 1.00032C10.6455 1.03631 10.5664 1.08912 10.4998 1.15572C10.4332 1.22233 10.3804 1.30142 10.3444 1.38847C10.3084 1.47552 10.29 1.56882 10.2901 1.66301C10.2901 2.06001 10.6101 2.38001 11.0071 2.38001C12.2294 2.38107 13.4014 2.86711 14.2657 3.73142C15.13 4.59574 15.616 5.76769 15.6171 6.99001C15.6171 7.39001 15.9371 7.71001 16.3341 7.71001Z" fill="#B3DB11"/>
<path d="M13.243 7.71C13.641 7.71 13.96 7.39 13.96 6.993C13.9592 6.20997 13.6479 5.45922 13.0943 4.90544C12.5407 4.35166 11.7901 4.04006 11.007 4.039C10.9128 4.03887 10.8194 4.05736 10.7323 4.09341C10.6452 4.12946 10.566 4.18235 10.4994 4.24907C10.4328 4.31578 10.38 4.39499 10.3441 4.48216C10.3081 4.56932 10.2898 4.66272 10.29 4.757C10.29 5.154 10.61 5.474 11.007 5.474C11.844 5.474 12.527 6.156 12.527 6.993C12.527 7.39 12.847 7.71 13.243 7.71Z" fill="#B3DB11"/>
</g>
<defs>
<clipPath id="clip0_5602_697">
<rect width="18" height="18" fill="white"/>
</clipPath>
</defs>
</svg>
