<svg width="98" height="73" viewBox="0 0 98 73" fill="none" xmlns="http://www.w3.org/2000/svg">
<path d="M96.125 69.625H91.25V64.75V47.25V40.75C91.25 39.8526 90.5232 39.125 89.625 39.125H83.125V35.875H88C88.8982 35.875 89.625 35.1474 89.625 34.25V24.5C89.625 23.6026 88.8982 22.875 88 22.875H60.375V18C60.375 17.1026 59.6482 16.375 58.75 16.375H53.875V13.125H55.5C56.3982 13.125 57.125 12.3974 57.125 11.5V1.75C57.125 0.8526 56.3982 0.125 55.5 0.125H10C9.1026 0.125 8.375 0.8526 8.375 1.75V11.5C8.375 12.3974 9.1026 13.125 10 13.125H11.625V16.375H6.75C5.8526 16.375 5.125 17.1026 5.125 18V69.625H1.875C0.9776 69.625 0.25 70.3518 0.25 71.25C0.25 72.1482 0.9776 72.875 1.875 72.875H6.75H53.875H58.75H89.625H96.125C97.0232 72.875 97.75 72.1482 97.75 71.25C97.75 70.3518 97.0232 69.625 96.125 69.625ZM57.125 40.75V51.75H24.625V37.5H57.125V40.75ZM60.375 53.375V48.875H88V63.125H60.375V53.375ZM88 45.625H60.375V42.375H81.5H88V45.625ZM79.875 39.125H60.375V35.875H79.875V39.125ZM86.375 26.125V32.625H81.5H60.375V26.125H86.375ZM11.625 3.375H53.875V9.875H52.25H13.25H11.625V3.375ZM14.875 13.125H50.625V16.375H14.875V13.125ZM53.875 69.625H8.375V19.625H13.25H52.25H57.125V24.5V34.25H23C22.1026 34.25 21.375 34.9776 21.375 35.875V53.375C21.375 54.2732 22.1026 55 23 55H57.125V69.625H53.875ZM60.375 69.625V66.375H88V69.625H60.375Z" fill="#B3DB11"/>
</svg>
