<svg width="14" height="14" viewBox="0 0 14 14" fill="none" xmlns="http://www.w3.org/2000/svg">
<g clip-path="url(#clip0_5602_694)">
<path d="M10.249 6.25299H7.75V3.75299C7.75 3.55408 7.67098 3.36331 7.53033 3.22266C7.38968 3.08201 7.19891 3.00299 7 3.00299C6.80109 3.00299 6.61032 3.08201 6.46967 3.22266C6.32902 3.36331 6.25 3.55408 6.25 3.75299V7.00299C6.25 7.41699 6.586 7.75299 7 7.75299H10.249C10.4479 7.75299 10.6387 7.67397 10.7793 7.53332C10.92 7.39267 10.999 7.2019 10.999 7.00299C10.999 6.80408 10.92 6.61331 10.7793 6.47266C10.6387 6.33201 10.4479 6.25299 10.249 6.25299Z" fill="#B3DB11"/>
<path d="M7 0C3.14 0 0 3.14 0 7C0 10.86 3.14 14 7 14C10.86 14 14 10.86 14 7C14 3.14 10.86 0 7 0ZM7 12.5C5.5418 12.4984 4.14377 11.9184 3.11267 10.8873C2.08156 9.85623 1.50159 8.4582 1.5 7C1.5 3.967 3.967 1.5 7 1.5C10.033 1.5 12.5 3.967 12.5 7C12.5 10.033 10.033 12.5 7 12.5Z" fill="#B3DB11"/>
</g>
<defs>
<clipPath id="clip0_5602_694">
<rect width="14" height="14" fill="white"/>
</clipPath>
</defs>
</svg>
